<svg xmlns="http://www.w3.org/2000/svg" width="78.836" height="55.771" viewBox="0 0 78.836 55.771">
  <g id="Illustration" transform="translate(0 0)">
    <path id="Path_5731" data-name="Path 5731" d="M813.442,246.71c-1.088,3.773-4.263,6.414-7.575,8.657q-.694.47-1.388.918l-.01.006-.065.043-.286.184.052.023s.051.027,0,0l-.051-.02a15.794,15.794,0,0,1-5.357-3.063c-1.53-1.51-2.424-3.878-1.6-5.861a3.784,3.784,0,0,1,.41-.736c.067-.1.14-.188.215-.278a4.059,4.059,0,0,1,6.971,1.233c.243-2.266-1.625-4.164-3.423-5.564s-3.843-2.924-4.19-5.177a4.391,4.391,0,0,1,1.036-3.444c.025-.03.049-.059.075-.088a5.923,5.923,0,0,1,3.807-2.043c2.758-.287,5.437,1.173,7.441,3.091C812.728,237.682,814.678,242.421,813.442,246.71Z" transform="translate(-734.981 -228.506)" fill="#f2f2f2"/>
    <path id="Path_5732" data-name="Path 5732" d="M813.9,257.841A10.07,10.07,0,0,1,815.1,260.5a8.742,8.742,0,0,1,.3,2.582,11.2,11.2,0,0,1-1.467,5.1,16.124,16.124,0,0,1-2.432,3.25q-.694.47-1.388.918l-.01.006-.065.043-.286.184s.1.051.047.028l-.051-.02a8.834,8.834,0,0,0-6.543-9.66c.067-.1.14-.188.215-.278a9.318,9.318,0,0,1,1.538.582,9.132,9.132,0,0,1,4.129,3.981,9.337,9.337,0,0,1,1.017,5.123c.079-.072.158-.145.235-.217a16.371,16.371,0,0,0,3.64-4.734,10.424,10.424,0,0,0,1.091-4.931,9.419,9.419,0,0,0-1.888-5.09,21.817,21.817,0,0,0-4.135-4.262,24.793,24.793,0,0,0-5.143-3.175.178.178,0,0,1-.09-.229.152.152,0,0,1,.074-.088.132.132,0,0,1,.115,0c.227.1.452.21.676.321a25.071,25.071,0,0,1,5.18,3.417A20.185,20.185,0,0,1,813.9,257.841Z" transform="translate(-740.621 -244.571)" fill="#fff"/>
    <circle id="Ellipse_377" data-name="Ellipse 377" cx="4.034" cy="4.034" r="4.034" transform="translate(56.679 31.739)" fill="#7e7e8b"/>
    <ellipse id="Ellipse_378" data-name="Ellipse 378" cx="1.669" cy="1.252" rx="1.669" ry="1.252" transform="translate(54.614 33.007) rotate(-45)" fill="#7e7e8b"/>
    <ellipse id="Ellipse_379" data-name="Ellipse 379" cx="1.252" cy="1.669" rx="1.252" ry="1.669" transform="translate(61.356 32.157) rotate(-66.869)" fill="#7e7e8b"/>
    <path id="Path_5733" data-name="Path 5733" d="M809.788,605.139A15.031,15.031,0,0,1,807.6,606.4l-.113-.2-1.081-1.9-.095-.167-.553-.97h0L804.01,600.1l-.9-1.575,2.665-1.869,1.037,2.192.562,1.191,2.314,4.893Z" transform="translate(-740.533 -552.048)" fill="#e6e6e6"/>
    <path id="Path_5734" data-name="Path 5734" d="M798.954,575.46l-.334-.523-1.478-2.318a1.865,1.865,0,1,0-3.41,1.513l.913,3.254a.67.67,0,0,0,.911.435l.009,0,2.8-1.249.3-.135a.673.673,0,0,0,.292-.974Z" transform="translate(-732.08 -529.771)" fill="#ccc"/>
    <path id="Path_5735" data-name="Path 5735" d="M722.474,600.62l-.778,1.756-.169.382-2.879,6.5-.092.209a14.948,14.948,0,0,1-2.244-1.168l.078-.219,2.35-6.631.577-1.628,1.264.318Z" transform="translate(-663.631 -554.857)" fill="#e6e6e6"/>
    <circle id="Ellipse_380" data-name="Ellipse 380" cx="3.423" cy="3.423" r="3.423" transform="translate(56.195 38.097) rotate(-61.337)" fill="#e6e6e6"/>
    <path id="Path_5736" data-name="Path 5736" d="M757.638,572.429a7.623,7.623,0,0,0-.268-1.332,7.424,7.424,0,0,0-2.145-3.4,2.029,2.029,0,0,0-1.357-.519h-4.822a2.028,2.028,0,0,0-1.817,2.94l.551,1.1,1.116,2.233.268.535,1.194,2.389.095.189,6.061,1.667.026-.058c.023-.051.046-.1.067-.152.033-.076.066-.15.1-.226a11.835,11.835,0,0,0,.969-3.875A8.628,8.628,0,0,0,757.638,572.429Z" transform="translate(-690.831 -525.93)" fill="#ccc"/>
    <path id="Path_5737" data-name="Path 5737" d="M737.924,571.285a1.862,1.862,0,0,0-2.473.889l-.43.649-1.437,2.169a.672.672,0,0,0,.275.979l.084.04,2.788,1.3.2.092a.646.646,0,0,0,.238.06.657.657,0,0,0,.322-.056.67.67,0,0,0,.368-.42l.965-3.228A1.867,1.867,0,0,0,737.924,571.285Z" transform="translate(-678.834 -529.415)" fill="#ccc"/>
    <path id="Path_5738" data-name="Path 5738" d="M759,645.012a.625.625,0,0,0-.1-.2,2.612,2.612,0,0,0-.553-.547h0c-.733-.555-2.193-1.2-5.008-1.221h0a.672.672,0,0,0-.612.393l-.07.153-.448.985a.515.515,0,0,1-.174.211,6.716,6.716,0,0,0-2.359,3.306c-.024.071-.047.143-.068.217a15.064,15.064,0,0,0,8.709-.079l.063-.259L759,645.4l.01-.042A.675.675,0,0,0,759,645.012Z" transform="translate(-693.125 -593.148)" fill="#7e7e8b"/>
    <path id="Path_5739" data-name="Path 5739" d="M756.322,494.5a4.656,4.656,0,0,0,2.661.822,2.853,2.853,0,0,1-1.131.465,9.388,9.388,0,0,0,3.835.022,2.482,2.482,0,0,0,.8-.276,1.016,1.016,0,0,0,.5-.663,1.369,1.369,0,0,0-.68-1.212,5.013,5.013,0,0,0-4.213-.842,2.307,2.307,0,0,0-1.248.705,1.136,1.136,0,0,0-.1,1.35Z" transform="translate(-699.078 -459.921)" fill="#7e7e8b"/>
    <rect id="Rectangle_2743" data-name="Rectangle 2743" width="61.842" height="0.248" transform="translate(0.124 3.476)" fill="#3f3d56"/>
    <circle id="Ellipse_381" data-name="Ellipse 381" cx="0.744" cy="0.744" r="0.744" transform="translate(1.487 1.116)" fill="#3f3d56"/>
    <circle id="Ellipse_382" data-name="Ellipse 382" cx="0.744" cy="0.744" r="0.744" transform="translate(3.625 1.116)" fill="#3f3d56"/>
    <circle id="Ellipse_383" data-name="Ellipse 383" cx="0.744" cy="0.744" r="0.744" transform="translate(5.763 1.116)" fill="#3f3d56"/>
    <path id="Path_5740" data-name="Path 5740" d="M401.4,349.747H366.3a.8.8,0,1,1,0-1.591h35.1a.8.8,0,1,1,0,1.591Z" transform="translate(-352.831 -331.887)" fill="#ccc"/>
    <path id="Path_5741" data-name="Path 5741" d="M401.4,424.735H366.3a.8.8,0,0,1,0-1.591h35.1a.8.8,0,0,1,0,1.591Z" transform="translate(-352.831 -398.323)" fill="#e6e6e6"/>
    <path id="Path_5742" data-name="Path 5742" d="M401.4,453.509H366.3a.8.8,0,1,1,0-1.591h35.1a.8.8,0,1,1,0,1.591Z" transform="translate(-352.831 -423.816)" fill="#e6e6e6"/>
    <path id="Path_5743" data-name="Path 5743" d="M440.106,320.1H416.441a.8.8,0,0,1,0-1.591h23.665a.8.8,0,0,1,0,1.591Z" transform="translate(-397.251 -305.621)" fill="#ccc"/>
    <path id="Path_5744" data-name="Path 5744" d="M379.025,395.96H366.7a.8.8,0,0,1,0-1.591h12.33a.8.8,0,0,1,0,1.591Z" transform="translate(-353.178 -372.83)" fill="#e6e6e6"/>
    <path id="Path_5745" data-name="Path 5745" d="M578.7,395.96h-12.33a.8.8,0,0,1,0-1.591H578.7a.8.8,0,1,1,0,1.591Z" transform="translate(-530.085 -372.83)" fill="#e6e6e6"/>
    <path id="Path_5746" data-name="Path 5746" d="M315.554,205.485H255.2a.868.868,0,0,0-.867.868v40.9a.868.868,0,0,0,.867.867h45.133c-.011-.082-.021-.165-.03-.247H255.2a.62.62,0,0,1-.619-.619v-40.9a.621.621,0,0,1,.619-.62h60.356a.621.621,0,0,1,.62.62v25.066c.082.006.165.013.247.021V206.353a.868.868,0,0,0-.868-.868Z" transform="translate(-254.332 -205.485)" fill="#3f3d56"/>
    <path id="Path_5747" data-name="Path 5747" d="M654.984,447.487c-.011-.082-.021-.165-.03-.247,0-.013,0-.024,0-.036q-.05-.45-.072-.909-.094.4-.17.794c0,.039.007.076.011.115,0,.013,0,.024,0,.036.009.082.018.165.03.247.032.254.071.505.116.755l0-.03c.032-.241.068-.48.112-.72A.012.012,0,0,1,654.984,447.487Zm16.09-16.908c-.082-.008-.165-.015-.248-.021l-.036,0c-.365-.027-.734-.041-1.106-.041a15.057,15.057,0,0,0-14.976,16.573c0,.039.007.076.011.115,0,.013,0,.024,0,.036.009.082.018.165.03.247.032.254.071.505.116.755a15.118,15.118,0,0,0,9.039,11.227c.237.1.477.192.719.277.16.058.319.112.481.163.116.038.234.073.351.107.167.049.335.1.505.139a14.979,14.979,0,0,0,12.272-2.21h0a15.048,15.048,0,0,0-7.166-27.366Zm7.067,27.157a14.758,14.758,0,0,1-2.2,1.271,14.609,14.609,0,0,1-1.7.671,14.851,14.851,0,0,1-8.106.282q-.3-.074-.6-.161t-.579-.181c-.156-.054-.312-.108-.468-.167s-.322-.125-.481-.192a14.862,14.862,0,0,1-9.017-11.767.011.011,0,0,1,0-.006c-.011-.082-.021-.165-.03-.247,0-.013,0-.024,0-.036q-.05-.45-.072-.909-.019-.361-.018-.726a14.841,14.841,0,0,1,14.824-14.824c.372,0,.741.014,1.106.041l.036,0c.082.006.165.013.248.021a14.82,14.82,0,0,1,7.068,26.927Zm-13.658,1.715c-.162-.062-.322-.125-.481-.192a14.862,14.862,0,0,1-9.017-11.767c-.043.239-.08.479-.112.72l0,.03a15.118,15.118,0,0,0,9.039,11.227c.237.1.477.192.72.277-.05-.1-.1-.2-.146-.294Zm6.307-28.895c-.365-.027-.734-.041-1.106-.041a15.057,15.057,0,0,0-14.976,16.573c0,.039.007.076.011.115,0,.013,0,.024,0,.036h.23c0-.013,0-.024,0-.036q-.05-.45-.072-.909-.019-.361-.018-.726a14.841,14.841,0,0,1,14.824-14.824c.372,0,.741.014,1.106.041l.036,0v-.229Z" transform="translate(-608.984 -404.854)" fill="#3f3d56"/>
    <path id="Path_5748" data-name="Path 5748" d="M866.988,464.3c4.623.079,4.623,6.956,0,7.034C862.365,471.257,862.366,464.38,866.988,464.3Z" transform="translate(-794.053 -434.788)" fill="#ccc"/>
    <path id="Path_5749" data-name="Path 5749" d="M879.047,482.181a.247.247,0,0,1-.247-.247v-1.311a.11.11,0,0,0-.11-.11H877.38a.247.247,0,1,1,0-.494h1.311a.11.11,0,0,0,.11-.11V478.6a.247.247,0,0,1,.494,0v1.311a.11.11,0,0,0,.11.11h1.311a.247.247,0,0,1,0,.494H879.4a.11.11,0,0,0-.11.11v1.311A.247.247,0,0,1,879.047,482.181Z" transform="translate(-806.112 -447.235)" fill="#fff"/>
  </g>
</svg>
