<svg xmlns="http://www.w3.org/2000/svg" width="214.104" height="170.311" viewBox="0 0 214.104 170.311"><defs><style>.a{opacity:0.2;}.b,.r{fill:none;stroke-linecap:round;stroke-linejoin:round;}.b{stroke:#2a4fbc;}.c{fill:#2a4fbc;opacity:0.112;}.d,.j,.m{fill:#407bff;}.e{fill:#b0cdff;}.f,.i,.p,.q{fill:#fff;}.g{fill:rgba(0,104,255,0.1);mix-blend-mode:multiply;}.g,.p{isolation:isolate;}.h{fill:#9c9b9b;}.i{stroke:rgba(72,115,184,0.4);}.i,.m{stroke-miterlimit:10;}.j,.p,.q{opacity:0.3;}.k{opacity:0.1;}.l{fill:#1560e5;}.m{stroke:rgba(0,0,0,0);}.n{fill:#adcfff;opacity:0.699;}.o{opacity:0.05;}.p{mix-blend-mode:soft-light;}.r{stroke:#4b6fb4;stroke-width:1.282px;}</style></defs><g transform="translate(-15.001 -23.868)"><g class="a" transform="translate(167.678 93.078)"><g transform="translate(0 0)"><line class="b" x1="4.089" transform="translate(19.526 34.041)"/><line class="b" x1="4.09" transform="translate(11.756 34.041)"/><line class="b" x1="4.09" transform="translate(17.889)"/><g transform="translate(0 0)"><path class="b" d="M368.5,164.1h9.523a5.673,5.673,0,0,0,0-11.347H348.939" transform="translate(-322.767 -152.753)"/><path class="b" d="M333.128,206.544h9.523a5.674,5.674,0,1,0,0-11.348H313.568" transform="translate(-306.309 -172.503)"/><path class="b" d="M315.188,185.321h-9.523a5.673,5.673,0,1,1,0-11.346h40.329" transform="translate(-299.991 -162.628)"/></g></g></g><g class="a" transform="translate(15.879 36.322)"><line class="b" x2="4.089" transform="translate(37.312 34.042)"/><line class="b" x2="4.089" transform="translate(45.082 34.042)"/><line class="b" x2="4.089" transform="translate(38.949)"/><path class="b" d="M31.283,57.952H21.758a5.674,5.674,0,0,1,0-11.348H50.842" transform="translate(-16.086 -46.604)"/><path class="b" d="M66.65,100.4H57.127a5.674,5.674,0,1,1,0-11.348H86.209" transform="translate(-32.542 -66.354)"/><path class="b" d="M74.8,79.173h9.522a5.673,5.673,0,1,0,0-11.346H44" transform="translate(-29.073 -56.479)"/><g transform="translate(36.825 34.042)"><line class="b" x1="4.089" transform="translate(19.525 34.041)"/><line class="b" x1="4.089" transform="translate(11.756 34.041)"/><line class="b" x1="4.089" transform="translate(17.889)"/><path class="b" d="M153.466,121.619h9.524a5.674,5.674,0,0,0,0-11.347H133.9" transform="translate(-107.734 -110.272)"/><path class="b" d="M118.1,164.062h9.524a5.674,5.674,0,0,0,0-11.348H98.537" transform="translate(-91.277 -130.021)"/><path class="b" d="M100.156,142.84H90.633a5.673,5.673,0,1,1,0-11.346h40.329" transform="translate(-84.959 -120.147)"/></g></g><ellipse class="c" cx="79.359" cy="5.152" rx="79.359" ry="5.152" transform="translate(35.636 179.33)"/><path class="c" d="M349.139,334.145c0,1.55-8,2.807-17.861,2.807s-17.86-1.257-17.86-2.807,8-2.807,17.86-2.807S349.139,332.6,349.139,334.145Z" transform="translate(-138.561 -142.774)"/><g transform="translate(42.674 72.257)"><g transform="translate(0 19.468)"><rect class="d" width="140.555" height="92.287" rx="6"/><path class="e" d="M206.552,238.949a3.379,3.379,0,0,1-3.4,3.359H72.487a3.38,3.38,0,0,1-3.4-3.359V156.469a3.381,3.381,0,0,1,3.4-3.359H203.154a3.379,3.379,0,0,1,3.4,3.359Z" transform="translate(-67.543 -151.566)"/><rect class="f" width="121.632" height="72.978" transform="translate(8.882 8.881)"/><path class="g" d="M111.663,238.8A200.46,200.46,0,0,0,129.21,223.92a226.907,226.907,0,0,0,30.606-36.275,250.452,250.452,0,0,0,19.746-34.535H72.487a3.381,3.381,0,0,0-3.4,3.359v82.479a3.38,3.38,0,0,0,3.4,3.359h34.3C108.445,241.183,110.071,240.006,111.663,238.8Z" transform="translate(-67.543 -151.566)"/><path class="h" d="M200.319,158.6a1.882,1.882,0,1,1-1.882-1.882A1.882,1.882,0,0,1,200.319,158.6Z" transform="translate(-126.856 -153.246)"/><path class="f" d="M222.433,309.306a1.738,1.738,0,0,1-1.738,1.737H214.9a1.737,1.737,0,0,1-1.737-1.737h0a1.737,1.737,0,0,1,1.737-1.738h5.792a1.738,1.738,0,0,1,1.738,1.738Z" transform="translate(-134.586 -223.438)"/><path class="f" d="M198.239,309.306a1.738,1.738,0,0,1-1.739,1.737h-5.791a1.739,1.739,0,0,1-1.739-1.737h0a1.739,1.739,0,0,1,1.739-1.738H196.5a1.739,1.739,0,0,1,1.739,1.738Z" transform="translate(-123.327 -223.438)"/><path class="f" d="M174.045,309.306a1.738,1.738,0,0,1-1.739,1.737h-5.792a1.738,1.738,0,0,1-1.737-1.737h0a1.738,1.738,0,0,1,1.737-1.738h5.792a1.739,1.739,0,0,1,1.739,1.738Z" transform="translate(-112.07 -223.438)"/></g><g transform="translate(23.745 0)"><rect class="i" width="140.561" height="90.867" rx="4"/><rect class="j" width="47.327" height="36.442" transform="translate(84.71 17.984)"/><rect class="k" width="38.808" height="10.412" transform="translate(10.061 17.984)"/><rect class="k" width="38.808" height="20.676" transform="translate(94.151 61.259)"/><rect class="k" width="62.818" height="2.603" transform="translate(10.061 33.602)"/><rect class="k" width="62.818" height="2.603" transform="translate(10.061 42.002)"/><rect class="k" width="42.122" height="2.603" transform="translate(10.061 50.403)"/><rect class="k" width="71.937" height="2.603" transform="translate(8.992 62.53)"/><rect class="k" width="71.937" height="2.603" transform="translate(8.992 70.931)"/><rect class="k" width="48.235" height="2.603" transform="translate(8.992 79.331)"/></g><g transform="translate(94.914 38.766)"><rect class="l" width="6.385" height="7.336" transform="translate(39.167 47.606) rotate(-38.506)"/><path class="m" d="M26.286,52.535a26.517,26.517,0,0,1-11.239-2.512,26.125,26.125,0,0,1-5.017-3.1,26.4,26.4,0,0,1-4.315-4.3A26.256,26.256,0,0,1,26.251,0,26.527,26.527,0,0,1,37.491,2.512a26.138,26.138,0,0,1,5.017,3.1,26.4,26.4,0,0,1,4.315,4.3A26.257,26.257,0,0,1,26.286,52.535Zm-.029-47.92A21.644,21.644,0,0,0,9.326,39.748a21.438,21.438,0,0,0,7.693,6.1,21.858,21.858,0,0,0,9.265,2.071A21.657,21.657,0,0,0,35.52,6.686a21.854,21.854,0,0,0-9.264-2.071Z"/><path class="n" d="M290.945,203.118a21.652,21.652,0,1,1-30.424-3.463A21.653,21.653,0,0,1,290.945,203.118Z" transform="translate(-247.732 -190.331)"/><path class="o" d="M287.868,243.986a21.651,21.651,0,0,1-35.119-16.194,21.649,21.649,0,1,0,42.9,3.341A21.56,21.56,0,0,1,287.868,243.986Z" transform="translate(-247.737 -205.615)"/><path class="d" d="M350.83,300.6a4.259,4.259,0,0,1-.682,5.985l-2.222,1.768a4.258,4.258,0,0,1-5.985-.681l-18.122-22.776a4.26,4.26,0,0,1,.681-5.985l2.223-1.769a4.26,4.26,0,0,1,5.985.682Z" transform="translate(-280.558 -228.146)"/><path class="l" d="M355.763,325.427l1.474,1.852a4.258,4.258,0,0,0,5.985.681l2.222-1.768a4.259,4.259,0,0,0,.682-5.985l-1.474-1.851Z" transform="translate(-295.853 -247.756)"/><path class="p" d="M356.3,302.288a1.243,1.243,0,0,1-.2,1.747h0a1.243,1.243,0,0,1-1.747-.2l-16.573-20.831a1.243,1.243,0,0,1,.2-1.747h0a1.243,1.243,0,0,1,1.747.2Z" transform="translate(-287.361 -230.368)"/><path class="q" d="M290.777,202.043a9.939,9.939,0,1,1-13.965-1.589A9.939,9.939,0,0,1,290.777,202.043Z" transform="translate(-257.37 -191.888)"/></g></g><g class="a" transform="translate(15.642 24.508)"><g transform="translate(41.146 32.211)"><line class="r" y2="4.849" transform="translate(2.403)"/><line class="r" x1="4.807" transform="translate(0 2.424)"/></g><g transform="translate(150.337)"><line class="r" y2="4.849" transform="translate(2.403)"/><line class="r" x1="4.807" transform="translate(0 2.424)"/></g><g transform="translate(206.593 46.715)"><line class="r" y2="4.849" transform="translate(2.404)"/><line class="r" x1="4.806" transform="translate(0 2.424)"/></g><g transform="translate(201.788 93.397)"><line class="r" y2="4.849" transform="translate(2.403)"/><line class="r" x1="4.805" transform="translate(0 2.424)"/></g><g transform="translate(11.49 83.166)"><line class="r" y2="4.849" transform="translate(2.403)"/><line class="r" x1="4.806" transform="translate(0 2.424)"/></g><g transform="translate(4.07 52.636)"><line class="r" x2="6.071"/><line class="r" x2="1.687" transform="translate(8.138)"/><line class="r" x2="1.687" transform="translate(11.343)"/><line class="r" x2="6.072" transform="translate(1.181 2.108)"/><line class="r" x2="1.687" transform="translate(9.318 2.108)"/><line class="r" x2="1.686" transform="translate(12.523 2.108)"/></g><g transform="translate(47.933 6.219)"><line class="r" x2="6.072"/><line class="r" x2="1.687" transform="translate(8.138)"/><line class="r" x2="1.687" transform="translate(11.343)"/><line class="r" x2="6.071" transform="translate(1.181 2.108)"/><line class="r" x2="1.686" transform="translate(9.319 2.108)"/><line class="r" x2="1.687" transform="translate(12.523 2.108)"/></g><g transform="translate(181.318 22.342)"><line class="r" x2="6.074"/><line class="r" x2="1.687" transform="translate(8.14)"/><line class="r" x2="1.688" transform="translate(11.344)"/><line class="r" x2="6.072" transform="translate(1.182 2.107)"/><line class="r" x2="1.686" transform="translate(9.32 2.107)"/><line class="r" x2="1.687" transform="translate(12.524 2.107)"/></g><g transform="translate(99.992 21.288)"><line class="r" x2="6.074"/><line class="r" x2="1.687" transform="translate(8.14)"/><line class="r" x2="1.688" transform="translate(11.344)"/><line class="r" x2="6.072" transform="translate(1.182 2.107)"/><line class="r" x2="1.686" transform="translate(9.32 2.107)"/><line class="r" x2="1.687" transform="translate(12.524 2.107)"/></g><g transform="translate(197.087 126.026)"><line class="r" x2="6.072"/><line class="r" x2="1.688" transform="translate(8.137)"/><line class="r" x2="1.688" transform="translate(11.342)"/><line class="r" x2="6.072" transform="translate(1.18 2.108)"/><line class="r" x2="1.688" transform="translate(9.317 2.108)"/><line class="r" x2="1.687" transform="translate(12.522 2.108)"/></g><g transform="translate(0 122.488)"><line class="r" x2="6.072"/><line class="r" x2="1.687" transform="translate(8.139)"/><line class="r" x2="1.687" transform="translate(11.343)"/><line class="r" x2="6.071" transform="translate(1.181 2.109)"/><line class="r" x2="1.686" transform="translate(9.319 2.109)"/><line class="r" x2="1.688" transform="translate(12.523 2.109)"/></g></g></g></svg>