<svg xmlns="http://www.w3.org/2000/svg" width="170.339" height="135.442" viewBox="0 0 170.339 135.442">
  <g id="No_Data_Illustration-3" data-name="No Data Illustration-3" transform="translate(-15.001 -23.868)">
    <g id="Group_294" data-name="Group 294" transform="translate(136.433 78.986)" opacity="0.2">
      <g id="Group_293" data-name="Group 293" transform="translate(0 0)">
        <line id="Line_19" data-name="Line 19" x1="3.249" transform="translate(15.513 27.046)" fill="none" stroke="#000" stroke-linecap="round" stroke-linejoin="round" stroke-width="1"/>
        <line id="Line_20" data-name="Line 20" x1="3.249" transform="translate(9.34 27.046)" fill="none" stroke="#000" stroke-linecap="round" stroke-linejoin="round" stroke-width="1"/>
        <line id="Line_21" data-name="Line 21" x1="3.249" transform="translate(14.213)" fill="none" stroke="#000" stroke-linecap="round" stroke-linejoin="round" stroke-width="1"/>
        <g id="Group_292" data-name="Group 292" transform="translate(0 0)">
          <path id="Path_401" data-name="Path 401" d="M364.479,161.768h7.566a4.508,4.508,0,0,0,0-9.015H348.939" transform="translate(-328.146 -152.753)" fill="none" stroke="#000" stroke-linecap="round" stroke-linejoin="round" stroke-width="1"/>
          <path id="Path_402" data-name="Path 402" d="M329.108,204.212h7.566a4.508,4.508,0,1,0,0-9.016H313.568" transform="translate(-307.8 -177.166)" fill="none" stroke="#000" stroke-linecap="round" stroke-linejoin="round" stroke-width="1"/>
          <path id="Path_403" data-name="Path 403" d="M312.065,182.99H304.5a4.507,4.507,0,1,1,0-9.015H336.54" transform="translate(-299.991 -164.96)" fill="none" stroke="#000" stroke-linecap="round" stroke-linejoin="round" stroke-width="1"/>
        </g>
      </g>
    </g>
    <g id="Group_299" data-name="Group 299" transform="translate(15.83 33.895)" opacity="0.2">
      <g id="Group_296" data-name="Group 296">
        <line id="Line_22" data-name="Line 22" x2="3.249" transform="translate(29.644 27.046)" fill="none" stroke="#000" stroke-linecap="round" stroke-linejoin="round" stroke-width="1"/>
        <line id="Line_23" data-name="Line 23" x2="3.249" transform="translate(35.817 27.046)" fill="none" stroke="#000" stroke-linecap="round" stroke-linejoin="round" stroke-width="1"/>
        <line id="Line_24" data-name="Line 24" x2="3.249" transform="translate(30.944)" fill="none" stroke="#000" stroke-linecap="round" stroke-linejoin="round" stroke-width="1"/>
        <g id="Group_295" data-name="Group 295">
          <path id="Path_404" data-name="Path 404" d="M28.16,55.62H20.593a4.508,4.508,0,0,1,0-9.016H43.7" transform="translate(-16.086 -46.604)" fill="none" stroke="#000" stroke-linecap="round" stroke-linejoin="round" stroke-width="1"/>
          <path id="Path_405" data-name="Path 405" d="M63.527,98.064H55.961a4.508,4.508,0,1,1,0-9.016H79.067" transform="translate(-36.429 -71.018)" fill="none" stroke="#000" stroke-linecap="round" stroke-linejoin="round" stroke-width="1"/>
          <path id="Path_406" data-name="Path 406" d="M68.473,76.842h7.565a4.507,4.507,0,1,0,0-9.015H44" transform="translate(-32.14 -58.811)" fill="none" stroke="#000" stroke-linecap="round" stroke-linejoin="round" stroke-width="1"/>
        </g>
      </g>
      <g id="Group_298" data-name="Group 298" transform="translate(29.257 27.046)">
        <line id="Line_25" data-name="Line 25" x1="3.249" transform="translate(15.513 27.045)" fill="none" stroke="#000" stroke-linecap="round" stroke-linejoin="round" stroke-width="1"/>
        <line id="Line_26" data-name="Line 26" x1="3.249" transform="translate(9.34 27.045)" fill="none" stroke="#000" stroke-linecap="round" stroke-linejoin="round" stroke-width="1"/>
        <line id="Line_27" data-name="Line 27" x1="3.249" transform="translate(14.213)" fill="none" stroke="#000" stroke-linecap="round" stroke-linejoin="round" stroke-width="1"/>
        <g id="Group_297" data-name="Group 297">
          <path id="Path_407" data-name="Path 407" d="M149.446,119.287h7.567a4.508,4.508,0,0,0,0-9.015H133.9" transform="translate(-113.113 -110.272)" fill="none" stroke="#000" stroke-linecap="round" stroke-linejoin="round" stroke-width="1"/>
          <path id="Path_408" data-name="Path 408" d="M114.076,161.73h7.567a4.508,4.508,0,0,0,0-9.016H98.537" transform="translate(-92.769 -134.685)" fill="none" stroke="#000" stroke-linecap="round" stroke-linejoin="round" stroke-width="1"/>
          <path id="Path_409" data-name="Path 409" d="M97.033,140.508H89.467a4.507,4.507,0,1,1,0-9.014h32.041" transform="translate(-84.959 -122.479)" fill="none" stroke="#000" stroke-linecap="round" stroke-linejoin="round" stroke-width="1"/>
        </g>
      </g>
    </g>
    <g id="Group_316" data-name="Group 316" transform="translate(15.642 24.508)" opacity="0.1">
      <g id="Group_305" data-name="Group 305" transform="translate(32.69 25.591)">
        <line id="Line_28" data-name="Line 28" y2="3.853" transform="translate(1.91)" fill="none" stroke="#111" stroke-linecap="round" stroke-linejoin="round" stroke-width="1.282"/>
        <line id="Line_29" data-name="Line 29" x1="3.819" transform="translate(0 1.926)" fill="none" stroke="#111" stroke-linecap="round" stroke-linejoin="round" stroke-width="1.282"/>
      </g>
      <g id="Group_306" data-name="Group 306" transform="translate(119.442)">
        <line id="Line_30" data-name="Line 30" y2="3.852" transform="translate(1.91)" fill="none" stroke="#111" stroke-linecap="round" stroke-linejoin="round" stroke-width="1.282"/>
        <line id="Line_31" data-name="Line 31" x1="3.819" transform="translate(0 1.926)" fill="none" stroke="#111" stroke-linecap="round" stroke-linejoin="round" stroke-width="1.282"/>
      </g>
      <g id="Group_307" data-name="Group 307" transform="translate(164.136 37.114)">
        <line id="Line_32" data-name="Line 32" y2="3.853" transform="translate(1.91)" fill="none" stroke="#111" stroke-linecap="round" stroke-linejoin="round" stroke-width="1.282"/>
        <line id="Line_33" data-name="Line 33" x1="3.818" transform="translate(0 1.926)" fill="none" stroke="#111" stroke-linecap="round" stroke-linejoin="round" stroke-width="1.282"/>
      </g>
      <g id="Group_308" data-name="Group 308" transform="translate(160.319 74.203)">
        <line id="Line_34" data-name="Line 34" y2="3.853" transform="translate(1.909)" fill="none" stroke="#111" stroke-linecap="round" stroke-linejoin="round" stroke-width="1.282"/>
        <line id="Line_35" data-name="Line 35" x1="3.817" transform="translate(0 1.926)" fill="none" stroke="#111" stroke-linecap="round" stroke-linejoin="round" stroke-width="1.282"/>
      </g>
      <g id="Group_309" data-name="Group 309" transform="translate(9.129 66.075)">
        <line id="Line_36" data-name="Line 36" y2="3.852" transform="translate(1.91)" fill="none" stroke="#111" stroke-linecap="round" stroke-linejoin="round" stroke-width="1.282"/>
        <line id="Line_37" data-name="Line 37" x1="3.819" transform="translate(0 1.926)" fill="none" stroke="#111" stroke-linecap="round" stroke-linejoin="round" stroke-width="1.282"/>
      </g>
      <g id="Group_310" data-name="Group 310" transform="translate(3.233 41.819)">
        <line id="Line_38" data-name="Line 38" x2="4.823" fill="none" stroke="#111" stroke-linecap="round" stroke-linejoin="round" stroke-width="1.282"/>
        <line id="Line_39" data-name="Line 39" x2="1.34" transform="translate(6.465)" fill="none" stroke="#111" stroke-linecap="round" stroke-linejoin="round" stroke-width="1.282"/>
        <line id="Line_40" data-name="Line 40" x2="1.34" transform="translate(9.012)" fill="none" stroke="#111" stroke-linecap="round" stroke-linejoin="round" stroke-width="1.282"/>
        <line id="Line_41" data-name="Line 41" x2="4.824" transform="translate(0.938 1.675)" fill="none" stroke="#111" stroke-linecap="round" stroke-linejoin="round" stroke-width="1.282"/>
        <line id="Line_42" data-name="Line 42" x2="1.34" transform="translate(7.403 1.675)" fill="none" stroke="#111" stroke-linecap="round" stroke-linejoin="round" stroke-width="1.282"/>
        <line id="Line_43" data-name="Line 43" x2="1.339" transform="translate(9.949 1.675)" fill="none" stroke="#111" stroke-linecap="round" stroke-linejoin="round" stroke-width="1.282"/>
      </g>
      <g id="Group_311" data-name="Group 311" transform="translate(38.083 4.941)">
        <line id="Line_44" data-name="Line 44" x2="4.824" fill="none" stroke="#111" stroke-linecap="round" stroke-linejoin="round" stroke-width="1.282"/>
        <line id="Line_45" data-name="Line 45" x2="1.34" transform="translate(6.465)" fill="none" stroke="#111" stroke-linecap="round" stroke-linejoin="round" stroke-width="1.282"/>
        <line id="Line_46" data-name="Line 46" x2="1.34" transform="translate(9.012)" fill="none" stroke="#111" stroke-linecap="round" stroke-linejoin="round" stroke-width="1.282"/>
        <line id="Line_47" data-name="Line 47" x2="4.823" transform="translate(0.938 1.675)" fill="none" stroke="#111" stroke-linecap="round" stroke-linejoin="round" stroke-width="1.282"/>
        <line id="Line_48" data-name="Line 48" x2="1.34" transform="translate(7.404 1.675)" fill="none" stroke="#111" stroke-linecap="round" stroke-linejoin="round" stroke-width="1.282"/>
        <line id="Line_49" data-name="Line 49" x2="1.34" transform="translate(9.949 1.675)" fill="none" stroke="#111" stroke-linecap="round" stroke-linejoin="round" stroke-width="1.282"/>
      </g>
      <g id="Group_312" data-name="Group 312" transform="translate(144.056 17.751)">
        <line id="Line_50" data-name="Line 50" x2="4.825" fill="none" stroke="#111" stroke-linecap="round" stroke-linejoin="round" stroke-width="1.282"/>
        <line id="Line_51" data-name="Line 51" x2="1.34" transform="translate(6.467)" fill="none" stroke="#111" stroke-linecap="round" stroke-linejoin="round" stroke-width="1.282"/>
        <line id="Line_52" data-name="Line 52" x2="1.341" transform="translate(9.013)" fill="none" stroke="#111" stroke-linecap="round" stroke-linejoin="round" stroke-width="1.282"/>
        <line id="Line_53" data-name="Line 53" x2="4.824" transform="translate(0.939 1.674)" fill="none" stroke="#111" stroke-linecap="round" stroke-linejoin="round" stroke-width="1.282"/>
        <line id="Line_54" data-name="Line 54" x2="1.34" transform="translate(7.405 1.674)" fill="none" stroke="#111" stroke-linecap="round" stroke-linejoin="round" stroke-width="1.282"/>
        <line id="Line_55" data-name="Line 55" x2="1.34" transform="translate(9.95 1.674)" fill="none" stroke="#111" stroke-linecap="round" stroke-linejoin="round" stroke-width="1.282"/>
      </g>
      <g id="Group_313" data-name="Group 313" transform="translate(79.442 16.913)">
        <line id="Line_56" data-name="Line 56" x2="4.825" fill="none" stroke="#111" stroke-linecap="round" stroke-linejoin="round" stroke-width="1.282"/>
        <line id="Line_57" data-name="Line 57" x2="1.34" transform="translate(6.467)" fill="none" stroke="#111" stroke-linecap="round" stroke-linejoin="round" stroke-width="1.282"/>
        <line id="Line_58" data-name="Line 58" x2="1.341" transform="translate(9.013)" fill="none" stroke="#111" stroke-linecap="round" stroke-linejoin="round" stroke-width="1.282"/>
        <line id="Line_59" data-name="Line 59" x2="4.824" transform="translate(0.939 1.674)" fill="none" stroke="#111" stroke-linecap="round" stroke-linejoin="round" stroke-width="1.282"/>
        <line id="Line_60" data-name="Line 60" x2="1.34" transform="translate(7.405 1.674)" fill="none" stroke="#111" stroke-linecap="round" stroke-linejoin="round" stroke-width="1.282"/>
        <line id="Line_61" data-name="Line 61" x2="1.34" transform="translate(9.95 1.674)" fill="none" stroke="#111" stroke-linecap="round" stroke-linejoin="round" stroke-width="1.282"/>
      </g>
      <g id="Group_314" data-name="Group 314" transform="translate(156.584 100.127)">
        <line id="Line_62" data-name="Line 62" x2="4.824" fill="none" stroke="#111" stroke-linecap="round" stroke-linejoin="round" stroke-width="1.282"/>
        <line id="Line_63" data-name="Line 63" x2="1.341" transform="translate(6.465)" fill="none" stroke="#111" stroke-linecap="round" stroke-linejoin="round" stroke-width="1.282"/>
        <line id="Line_64" data-name="Line 64" x2="1.341" transform="translate(9.011)" fill="none" stroke="#111" stroke-linecap="round" stroke-linejoin="round" stroke-width="1.282"/>
        <line id="Line_65" data-name="Line 65" x2="4.824" transform="translate(0.938 1.675)" fill="none" stroke="#111" stroke-linecap="round" stroke-linejoin="round" stroke-width="1.282"/>
        <line id="Line_66" data-name="Line 66" x2="1.341" transform="translate(7.402 1.675)" fill="none" stroke="#111" stroke-linecap="round" stroke-linejoin="round" stroke-width="1.282"/>
        <line id="Line_67" data-name="Line 67" x2="1.34" transform="translate(9.949 1.675)" fill="none" stroke="#111" stroke-linecap="round" stroke-linejoin="round" stroke-width="1.282"/>
      </g>
      <g id="Group_315" data-name="Group 315" transform="translate(0 97.315)">
        <line id="Line_68" data-name="Line 68" x2="4.824" fill="none" stroke="#111" stroke-linecap="round" stroke-linejoin="round" stroke-width="1.282"/>
        <line id="Line_69" data-name="Line 69" x2="1.34" transform="translate(6.466)" fill="none" stroke="#111" stroke-linecap="round" stroke-linejoin="round" stroke-width="1.282"/>
        <line id="Line_70" data-name="Line 70" x2="1.34" transform="translate(9.012)" fill="none" stroke="#111" stroke-linecap="round" stroke-linejoin="round" stroke-width="1.282"/>
        <line id="Line_71" data-name="Line 71" x2="4.823" transform="translate(0.938 1.675)" fill="none" stroke="#111" stroke-linecap="round" stroke-linejoin="round" stroke-width="1.282"/>
        <line id="Line_72" data-name="Line 72" x2="1.34" transform="translate(7.404 1.675)" fill="none" stroke="#111" stroke-linecap="round" stroke-linejoin="round" stroke-width="1.282"/>
        <line id="Line_73" data-name="Line 73" x2="1.341" transform="translate(9.949 1.675)" fill="none" stroke="#111" stroke-linecap="round" stroke-linejoin="round" stroke-width="1.282"/>
      </g>
    </g>
    <ellipse id="Ellipse_54" data-name="Ellipse 54" cx="63.05" cy="4.093" rx="63.05" ry="4.093" transform="translate(31.527 147.513)" opacity="0.1"/>
    <path id="Path_410" data-name="Path 410" d="M341.8,333.568c0,1.232-6.353,2.23-14.19,2.23s-14.19-1-14.19-2.23,6.353-2.23,14.19-2.23S341.8,332.337,341.8,333.568Z" transform="translate(-171.281 -176.489)" opacity="0.1"/>
    <g id="Group_304" data-name="Group 304" transform="translate(37.119 62.444)">
      <g id="Group_301" data-name="Group 301" transform="translate(0 15.467)">
        <g id="Group_300" data-name="Group 300">
          <rect id="Rectangle_493" data-name="Rectangle 493" width="111.67" height="73.321" rx="6"/>
          <path id="Path_411" data-name="Path 411" d="M178.3,221.308a2.685,2.685,0,0,1-2.7,2.669H71.788a2.686,2.686,0,0,1-2.7-2.669V155.779a2.686,2.686,0,0,1,2.7-2.669H175.6a2.685,2.685,0,0,1,2.7,2.669Z" transform="translate(-67.861 -151.883)" fill="#9a9a9a"/>
          <rect id="Rectangle_494" data-name="Rectangle 494" width="96.635" height="57.98" transform="translate(7.056 7.056)" fill="#fff"/>
          <path id="Path_412" data-name="Path 412" d="M102.913,221.188a159.264,159.264,0,0,0,13.941-11.82,180.276,180.276,0,0,0,24.316-28.82,198.983,198.983,0,0,0,15.688-27.438H71.788a2.686,2.686,0,0,0-2.7,2.669v65.529a2.686,2.686,0,0,0,2.7,2.669H99.037C100.357,223.083,101.648,222.148,102.913,221.188Z" transform="translate(-67.861 -151.883)" fill="rgba(0,0,0,0.12)" style="mix-blend-mode: multiply;isolation: isolate"/>
          <path id="Path_413" data-name="Path 413" d="M199.545,158.217a1.5,1.5,0,1,1-1.5-1.5A1.495,1.495,0,0,1,199.545,158.217Z" transform="translate(-141.18 -153.961)" fill="#9c9b9b"/>
          <path id="Path_414" data-name="Path 414" d="M220.528,308.949a1.38,1.38,0,0,1-1.381,1.38h-4.6a1.38,1.38,0,0,1-1.38-1.38h0a1.38,1.38,0,0,1,1.38-1.381h4.6a1.381,1.381,0,0,1,1.381,1.381Z" transform="translate(-150.735 -240.727)" fill="#fff"/>
          <path id="Path_415" data-name="Path 415" d="M196.334,308.949a1.381,1.381,0,0,1-1.381,1.38h-4.6a1.381,1.381,0,0,1-1.381-1.38h0a1.382,1.382,0,0,1,1.381-1.381h4.6a1.381,1.381,0,0,1,1.381,1.381Z" transform="translate(-136.817 -240.727)" fill="#fff"/>
          <path id="Path_416" data-name="Path 416" d="M172.14,308.949a1.381,1.381,0,0,1-1.381,1.38h-4.6a1.381,1.381,0,0,1-1.38-1.38h0a1.381,1.381,0,0,1,1.38-1.381h4.6a1.381,1.381,0,0,1,1.381,1.381Z" transform="translate(-122.902 -240.727)" fill="#fff"/>
        </g>
      </g>
      <g id="Group_302" data-name="Group 302" transform="translate(18.865 0)">
        <rect id="Rectangle_495" data-name="Rectangle 495" width="111.674" height="72.193" rx="4" fill="#fff" stroke="rgba(0,0,0,0.38)" stroke-miterlimit="10" stroke-width="1"/>
        <rect id="Rectangle_497" data-name="Rectangle 497" width="37.601" height="28.953" rx="2" transform="translate(67.302 14.288)" fill="rgba(0,0,0,0.12)"/>
        <rect id="Rectangle_498" data-name="Rectangle 498" width="30.833" height="8.272" transform="translate(7.994 14.288)" opacity="0.1"/>
        <rect id="Rectangle_499" data-name="Rectangle 499" width="30.833" height="16.427" rx="2" transform="translate(74.802 48.669)" opacity="0.1"/>
        <rect id="Rectangle_500" data-name="Rectangle 500" width="49.909" height="2.068" transform="translate(7.994 26.696)" opacity="0.1"/>
        <rect id="Rectangle_501" data-name="Rectangle 501" width="49.909" height="2.068" transform="translate(7.994 33.37)" opacity="0.1"/>
        <rect id="Rectangle_502" data-name="Rectangle 502" width="33.465" height="2.068" transform="translate(7.994 40.045)" opacity="0.1"/>
        <rect id="Rectangle_503" data-name="Rectangle 503" width="57.153" height="2.068" transform="translate(7.144 49.68)" opacity="0.1"/>
        <rect id="Rectangle_504" data-name="Rectangle 504" width="57.153" height="2.068" transform="translate(7.144 56.354)" opacity="0.1"/>
        <rect id="Rectangle_505" data-name="Rectangle 505" width="38.322" height="2.068" transform="translate(7.144 63.028)" opacity="0.1"/>
      </g>
      <g id="Group_303" data-name="Group 303" transform="translate(75.408 30.799)">
        <rect id="Rectangle_506" data-name="Rectangle 506" width="5.073" height="5.828" transform="translate(31.118 37.823) rotate(-38.506)" fill="#292929"/>
        <path id="Subtraction_9" data-name="Subtraction 9" d="M20.884,41.739a21.068,21.068,0,0,1-8.929-2,20.756,20.756,0,0,1-3.986-2.465A20.97,20.97,0,0,1,4.54,33.862,20.86,20.86,0,0,1,20.857,0a21.076,21.076,0,0,1,8.93,2,20.766,20.766,0,0,1,3.986,2.465A20.978,20.978,0,0,1,37.2,7.876,20.861,20.861,0,0,1,20.884,41.739ZM20.86,3.666A17.2,17.2,0,0,0,7.409,31.579a17.032,17.032,0,0,0,6.112,4.848,17.366,17.366,0,0,0,7.361,1.646A17.207,17.207,0,0,0,28.221,5.312a17.363,17.363,0,0,0-7.36-1.646Z" transform="translate(0 0)" fill="#484848" stroke="rgba(0,0,0,0)" stroke-miterlimit="10" stroke-width="1"/>
        <path id="Path_422" data-name="Path 422" d="M283.013,201.438a17.2,17.2,0,1,1-24.172-2.751A17.2,17.2,0,0,1,283.013,201.438Z" transform="translate(-248.681 -191.279)" fill="#c6c6c6" opacity="0.699"/>
        <path id="Path_423" data-name="Path 423" d="M280.57,240.658a17.2,17.2,0,0,1-27.9-12.866,17.2,17.2,0,1,0,34.08,2.655A17.129,17.129,0,0,1,280.57,240.658Z" transform="translate(-248.686 -210.173)" opacity="0.05"/>
        <path id="Path_424" data-name="Path 424" d="M345.088,295.586a3.384,3.384,0,0,1-.542,4.755l-1.765,1.4a3.383,3.383,0,0,1-4.755-.541l-14.4-18.1a3.384,3.384,0,0,1,.541-4.755l1.766-1.405a3.385,3.385,0,0,1,4.755.542Z" transform="translate(-289.258 -238.024)" fill="#484848"/>
        <path id="Path_425" data-name="Path 425" d="M355.763,323.973l1.171,1.471a3.383,3.383,0,0,0,4.755.541l1.765-1.4a3.384,3.384,0,0,0,.542-4.755l-1.171-1.471Z" transform="translate(-308.165 -262.264)" fill="#121212"/>
        <path id="Path_426" data-name="Path 426" d="M352.441,297.911a.987.987,0,0,1-.158,1.388h0a.987.987,0,0,1-1.388-.158l-13.167-16.55a.988.988,0,0,1,.158-1.388h0a.988.988,0,0,1,1.388.158Z" transform="translate(-297.668 -240.771)" fill="#fff" opacity="0.3" style="mix-blend-mode: soft-light;isolation: isolate"/>
        <path id="Path_427" data-name="Path 427" d="M287.136,201.273a7.9,7.9,0,1,1-11.095-1.263A7.9,7.9,0,0,1,287.136,201.273Z" transform="translate(-260.595 -193.204)" fill="#fff" opacity="0.3"/>
      </g>
    </g>
  </g>
</svg>
