<svg id="filter_alt_black_36dp" xmlns="http://www.w3.org/2000/svg" width="24" height="24" viewBox="0 0 24 24">
  <g id="filter_alt_black_24dp" opacity="0.38">
    <g id="Group_6475" data-name="Group 6475">
      <path id="Path_5525" data-name="Path 5525" d="M0,0H24m0,24H0" fill="none"/>
      <path id="Path_5526" data-name="Path 5526" d="M7,6H17l-5.01,6.3ZM4.25,5.61C6.27,8.2,10,13,10,13v6a1,1,0,0,0,1,1h2a1,1,0,0,0,1-1V13s3.72-4.8,5.74-7.39A1,1,0,0,0,18.95,4H5.04A1,1,0,0,0,4.25,5.61Z"/>
      <path id="Path_5527" data-name="Path 5527" d="M0,0H24V24H0Z" fill="none"/>
    </g>
    <path id="Path_5528" data-name="Path 5528" d="M7,6H17l-5.01,6.3Z" opacity="0.3"/>
  </g>
</svg>
