<svg id="collections_black_24dp" xmlns="http://www.w3.org/2000/svg" width="20" height="20" viewBox="0 0 20 20">
  <path id="Path_5705" data-name="Path 5705" d="M0,0H20V20H0Z" fill="none"/>
  <path id="Path_5706" data-name="Path 5706" d="M17,3.667v10H7v-10H17M17,2H7A1.672,1.672,0,0,0,5.333,3.667v10A1.672,1.672,0,0,0,7,15.333H17a1.672,1.672,0,0,0,1.667-1.667v-10A1.672,1.672,0,0,0,17,2ZM9.917,10.058l1.408,1.883,2.067-2.583,2.775,3.475H7.833ZM2,5.333V17a1.672,1.672,0,0,0,1.667,1.667H15.333V17H3.667V5.333Z" transform="translate(-0.333 -0.333)" fill="rgba(0,0,0,0.38)"/>
</svg>
