<svg id="table_view_black_24dp" xmlns="http://www.w3.org/2000/svg" width="16" height="16" viewBox="0 0 16 16">
  <rect id="Rectangle_2395" data-name="Rectangle 2395" width="16" height="16" fill="none"/>
  <path id="Path_5379" data-name="Path 5379" d="M13.667,5.667H7A1.337,1.337,0,0,0,5.667,7v6.667A1.337,1.337,0,0,0,7,15h6.667A1.337,1.337,0,0,0,15,13.667V7A1.337,1.337,0,0,0,13.667,5.667Zm0,1.333V8.333H7V7Zm-4,4V9.667H11V11ZM11,12.333v1.333H9.667V12.333ZM8.333,11H7V9.667H8.333Zm4-1.333h1.333V11H12.333ZM7,12.333H8.333v1.333H7Zm5.333,1.333V12.333h1.333v1.333ZM5,12.333H4.333A1.337,1.337,0,0,1,3,11V4.333A1.337,1.337,0,0,1,4.333,3H11a1.337,1.337,0,0,1,1.333,1.333V5H11V4.333H4.333V11H5Z" transform="translate(-1 -1)"/>
</svg>
