<svg id="checklist_black_24dp" xmlns="http://www.w3.org/2000/svg" width="20" height="20" viewBox="0 0 16 16">
  <rect id="Rectangle_2394" data-name="Rectangle 2394" width="16" height="16" fill="none"/>
  <path id="Path_5510" data-name="Path 5510" d="M11.5,5H11a.5.5,0,0,0-.5.5v6a.5.5,0,0,0,.5.5h.5a.5.5,0,0,0,.5-.5v-6A.5.5,0,0,0,11.5,5Zm-2,0h-4a.5.5,0,0,0-.5.5v6a.5.5,0,0,0,.5.5h4a.5.5,0,0,0,.5-.5v-6A.5.5,0,0,0,9.5,5ZM4,5H3.5a.5.5,0,0,0-.5.5v6a.5.5,0,0,0,.5.5H4a.5.5,0,0,0,.5-.5v-6A.5.5,0,0,0,4,5Z" transform="translate(0.5 -0.5)"/>
</svg>
