<svg id="illustration_Inactive-usre" xmlns="http://www.w3.org/2000/svg" width="161.446" height="136.107" viewBox="0 0 161.446 136.107">
  <path id="Path_5436" data-name="Path 5436" d="M651.463,319,597.9,294.552l27.58-60.413,53.562,24.452Z" transform="translate(-517.597 -209.172)" fill="#f2f2f2"/>
  <path id="Path_5437" data-name="Path 5437" d="M743.784,406.825l-40.548-18.511a.317.317,0,1,1,.263-.576l40.548,18.511a.317.317,0,1,1-.263.576Z" transform="translate(-601.759 -332.09)" fill="#fff"/>
  <path id="Path_5438" data-name="Path 5438" d="M755.08,382.081,714.532,363.57a.317.317,0,0,1,.263-.576l40.548,18.511a.317.317,0,1,1-.263.576Z" transform="translate(-610.801 -312.284)" fill="#fff"/>
  <path id="Path_5439" data-name="Path 5439" d="M766.377,357.337l-40.548-18.511a.317.317,0,0,1,.263-.576l40.548,18.511a.317.317,0,0,1-.263.576Z" transform="translate(-619.842 -292.479)" fill="#fff"/>
  <path id="Path_5440" data-name="Path 5440" d="M777.673,332.593l-40.548-18.511a.317.317,0,0,1,.263-.576l40.548,18.511a.317.317,0,1,1-.263.576Z" transform="translate(-628.883 -272.674)" fill="#fff"/>
  <path id="Path_5441" data-name="Path 5441" d="M733.575,429.187l-40.548-18.511a.317.317,0,0,1,.263-.576l40.548,18.511a.317.317,0,1,1-.263.576Z" transform="translate(-593.588 -349.988)" fill="#fff"/>
  <path id="Path_5442" data-name="Path 5442" d="M801.91,309.063,770.237,294.6a.791.791,0,0,1-.445-.954.762.762,0,0,1,1.038-.45l31.663,14.455a.8.8,0,0,1,.451.968.762.762,0,0,1-1.035.44Z" transform="translate(-655.152 -256.389)" fill="#fff"/>
  <path id="Path_5443" data-name="Path 5443" d="M320.271,258.591l53.562-24.452,27.58,60.413L347.851,319Z" transform="translate(-295.382 -209.172)" fill="#f2f2f2"/>
  <path id="Path_5444" data-name="Path 5444" d="M415.771,406.825l40.548-18.511a.317.317,0,1,0-.263-.576l-40.548,18.511a.317.317,0,0,0,.263.576Z" transform="translate(-371.462 -332.09)" fill="#fff"/>
  <path id="Path_5445" data-name="Path 5445" d="M404.475,382.081l40.548-18.511a.317.317,0,1,0-.263-.576l-40.548,18.511a.317.317,0,0,0,.263.576Z" transform="translate(-362.42 -312.284)" fill="#fff"/>
  <path id="Path_5446" data-name="Path 5446" d="M393.178,357.337l40.548-18.511a.317.317,0,0,0-.263-.576l-40.548,18.511a.317.317,0,0,0,.263.576Z" transform="translate(-353.379 -292.479)" fill="#fff"/>
  <path id="Path_5447" data-name="Path 5447" d="M381.882,332.593l40.548-18.511a.317.317,0,0,0-.263-.576l-40.548,18.511a.317.317,0,1,0,.263.576Z" transform="translate(-344.337 -272.674)" fill="#fff"/>
  <path id="Path_5448" data-name="Path 5448" d="M425.979,429.187l40.548-18.511a.317.317,0,1,0-.263-.576l-40.548,18.511a.317.317,0,0,0,.263.576Z" transform="translate(-379.633 -349.988)" fill="#fff"/>
  <path id="Path_5449" data-name="Path 5449" d="M389.565,309.063,421.238,294.6a.791.791,0,0,0,.445-.954.762.762,0,0,0-1.038-.45l-31.663,14.455a.8.8,0,0,0-.451.968.762.762,0,0,0,1.035.44Z" transform="translate(-349.989 -256.389)" fill="#fff"/>
  <path id="Path_5450" data-name="Path 5450" d="M222.244,663.748c.338-5.238,3.257-10.553,8.116-12.54a24.186,24.186,0,0,0,.985,16.576c.884,2.016,2.078,4.166,1.484,6.286a5.406,5.406,0,0,1-2.585,3.064,16.056,16.056,0,0,1-3.839,1.434l-.25.233C223.749,674.136,221.906,668.986,222.244,663.748Z" transform="translate(-216.89 -542.993)" fill="#f0f0f0"/>
  <path id="Path_5451" data-name="Path 5451" d="M244.546,650.868a20.671,20.671,0,0,0-4.441,11.918,8.9,8.9,0,0,0,.266,2.776,5.106,5.106,0,0,0,1.408,2.289,10.567,10.567,0,0,1,1.754,1.862,3.126,3.126,0,0,1,.3,2.539,8.124,8.124,0,0,1-1.638,2.787,7.976,7.976,0,0,0-1.819,3.1c-.033.145-.256.086-.224-.059.473-2.087,2.4-3.37,3.235-5.274a3.166,3.166,0,0,0,.049-2.786,8.2,8.2,0,0,0-1.744-1.924,5.448,5.448,0,0,1-1.46-2.187,8.23,8.23,0,0,1-.372-2.756,20.056,20.056,0,0,1,1.1-6.171,21.039,21.039,0,0,1,3.417-6.276C244.475,650.588,244.638,650.753,244.546,650.868Z" transform="translate(-231.021 -542.558)" fill="#fff"/>
  <path id="Path_5452" data-name="Path 5452" d="M230.763,691.478a3.1,3.1,0,0,1-2.549-3.1.116.116,0,0,1,.231,0,2.872,2.872,0,0,0,2.377,2.882C230.969,691.281,230.909,691.5,230.763,691.478Z" transform="translate(-221.7 -572.651)" fill="#fff"/>
  <path id="Path_5453" data-name="Path 5453" d="M247.523,720.718a5.978,5.978,0,0,0,2.461-3.595c.033-.145.257-.086.224.059a6.218,6.218,0,0,1-2.568,3.736C247.515,721,247.4,720.8,247.523,720.718Z" transform="translate(-237.113 -595.684)" fill="#fff"/>
  <path id="Path_5454" data-name="Path 5454" d="M249.833,671.142a1.756,1.756,0,0,0,1.656-.183c.122-.085.238.116.116.2a1.967,1.967,0,0,1-1.831.206.12.12,0,0,1-.082-.142A.116.116,0,0,1,249.833,671.142Z" transform="translate(-238.888 -558.786)" fill="#fff"/>
  <path id="Path_5455" data-name="Path 5455" d="M261.487,691.785c-.075.055-.15.111-.225.168a23.128,23.128,0,0,0-2.814,2.479c-.068.069-.137.139-.2.21a24.374,24.374,0,0,0-4.855,7.547,23.676,23.676,0,0,0-1.1,3.426,15.41,15.41,0,0,1-1.54,4.745,4.066,4.066,0,0,1-.293.409l-8.543.507-.06-.024-.34.036c.01-.061.022-.125.032-.186.006-.036.013-.071.019-.107s.009-.047.012-.069,0-.016,0-.022c0-.022.007-.042.01-.061q.1-.531.2-1.062s0,0,0,0a34.8,34.8,0,0,1,2.468-7.849c.035-.074.069-.151.108-.225a22.585,22.585,0,0,1,1.843-3.192,19.953,19.953,0,0,1,1.237-1.6,16.6,16.6,0,0,1,3.963-3.353,13.185,13.185,0,0,1,9.812-1.836C261.318,691.742,261.4,691.763,261.487,691.785Z" transform="translate(-232.349 -575.179)" fill="#f0f0f0"/>
  <path id="Path_5456" data-name="Path 5456" d="M261.581,692.86A20.673,20.673,0,0,0,250.86,699.7a8.9,8.9,0,0,0-1.459,2.377,5.106,5.106,0,0,0-.254,2.675,10.568,10.568,0,0,1,.279,2.543,3.126,3.126,0,0,1-1.286,2.21,8.123,8.123,0,0,1-2.985,1.239,7.975,7.975,0,0,0-3.317,1.378c-.114.1-.256-.086-.143-.182,1.634-1.381,3.941-1.249,5.758-2.263a3.166,3.166,0,0,0,1.716-2.195,8.2,8.2,0,0,0-.234-2.587,5.448,5.448,0,0,1,.151-2.625,8.229,8.229,0,0,1,1.362-2.424,20.054,20.054,0,0,1,4.595-4.264,21.037,21.037,0,0,1,6.507-2.953c.144-.037.174.192.031.229Z" transform="translate(-232.456 -576.145)" fill="#fff"/>
  <path id="Path_5457" data-name="Path 5457" d="M288.623,706.138a3.1,3.1,0,0,1-.167-4.013c.092-.117.278.02.186.138A2.872,2.872,0,0,0,288.8,706c.1.109-.081.251-.182.143Z" transform="translate(-269.392 -583.712)" fill="#fff"/>
  <path id="Path_5458" data-name="Path 5458" d="M278.084,745.618a5.978,5.978,0,0,0,4.129-1.389c.114-.1.257.086.143.182a6.218,6.218,0,0,1-4.3,1.436C277.908,745.84,277.936,745.61,278.084,745.618Z" transform="translate(-261.515 -617.426)" fill="#fff"/>
  <path id="Path_5459" data-name="Path 5459" d="M318.145,702.022a1.756,1.756,0,0,0,1.432.851c.149.006.12.235-.028.23a1.967,1.967,0,0,1-1.586-.938.119.119,0,0,1,.02-.162A.116.116,0,0,1,318.145,702.022Z" transform="translate(-293.517 -583.629)" fill="#fff"/>
  <path id="Path_5460" data-name="Path 5460" d="M540.832,299.612H460.741V209.276h80.091Z" transform="translate(-407.814 -189.271)" fill="#fff"/>
  <path id="Path_5461" data-name="Path 5461" d="M540.832,299.612H460.741V209.276h80.091Zm-79.661-.431H540.4V209.706h-79.23Z" transform="translate(-407.814 -189.271)" fill="#cacaca"/>
  <path id="Path_5463" data-name="Path 5463" d="M568.393,380.732H507.761a.431.431,0,0,1,0-.861h60.631a.431.431,0,0,1,0,.861Z" transform="translate(-445.105 -325.815)" fill="#e4e4e4"/>
  <path id="Path_5464" data-name="Path 5464" d="M568.393,343.732H507.761a.431.431,0,1,1,0-.861h60.631a.431.431,0,0,1,0,.861Z" transform="translate(-445.105 -296.201)" fill="#e4e4e4"/>
  <path id="Path_5465" data-name="Path 5465" d="M568.393,306.732H507.761a.431.431,0,1,1,0-.861h60.631a.431.431,0,0,1,0,.861Z" transform="translate(-445.105 -266.586)" fill="#e4e4e4"/>
  <path id="Path_5467" data-name="Path 5467" d="M568.393,617.17H507.761a.431.431,0,0,1,0-.861h60.631a.431.431,0,0,1,0,.861Z" transform="translate(-445.105 -515.06)" fill="#e4e4e4"/>
  <path id="Path_5471" data-name="Path 5471" d="M335.269,532.409a2.007,2.007,0,0,0-1.731-2.545l-1.655-6.938-2.536,2.7,1.96,6.174a2.018,2.018,0,0,0,3.962.606Z" transform="translate(-302.647 -440.316)" fill="#ffb6b6"/>
  <path id="Path_5472" data-name="Path 5472" d="M317.539,456.549a.9.9,0,0,1-.54-.494l-3.509-8.582a9.256,9.256,0,0,1-.329-6.508l2.248-7.043a2.894,2.894,0,1,1,5.763.527l-2.982,11.34,2,8.907a.9.9,0,0,1-.439.934l-1.48.846a.9.9,0,0,1-.729.072Z" transform="translate(-289.34 -366.973)" fill="#e4e4e4"/>
  <path id="Path_5473" data-name="Path 5473" d="M203.8,631.233h2.447l1.164-9.439H203.8Z" transform="translate(-163.118 -497.683)" fill="#ffb6b6"/>
  <path id="Path_5474" data-name="Path 5474" d="M396.251,774.132h4.819a3.071,3.071,0,0,1,3.071,3.071v.1h-7.89Z" transform="translate(-356.197 -641.381)" fill="#2f2e41"/>
  <path id="Path_5475" data-name="Path 5475" d="M134.8,631.233h2.447l1.164-9.439H134.8Z" transform="translate(-107.891 -497.683)" fill="#ffb6b6"/>
  <path id="Path_5476" data-name="Path 5476" d="M327.251,774.132h4.819a3.071,3.071,0,0,1,3.071,3.071v.1h-7.89Z" transform="translate(-300.969 -641.381)" fill="#2f2e41"/>
  <path id="Path_5477" data-name="Path 5477" d="M339.527,534.555l-14.351-1.263s-1.418,9.047-1.218,12.64.4,9.182.4,9.182l-1.6,24.351,6.188-.8.8-20.16,2.595-10.978,2.994,13.972,2,17.964,5.389-.6-1.8-21.757S342.521,537.549,339.527,534.555Z" transform="translate(-297.375 -448.614)" fill="#2f2e41"/>
  <circle id="Ellipse_343" data-name="Ellipse 343" cx="3.992" cy="3.992" r="3.992" transform="translate(32.372 51.41)" fill="#ffb8b8"/>
  <path id="Path_5478" data-name="Path 5478" d="M345.624,417.082l-2.851-2.27s-3.088-2.382-4.9-.621l-.813,1.163s-4.61,1.728-4.61,3.924l.219,12.044s-1.6,6.188.8,6.587l13.952,1.129-.18-11.509Z" transform="translate(-304.889 -352.766)" fill="#e4e4e4"/>
  <path id="Path_5479" data-name="Path 5479" d="M351.705,369.085s-4.192-2.994-2-6.587c1.523-2.492,4.68-2.3,6.47-1.941a3.025,3.025,0,0,1,2.213,1.741c.3.7.3,1.4-.9,1.4-2.4,0-1.2,1.8-1.2,1.8s-1.6.4-1.2,1.8S351.705,369.085,351.705,369.085Z" transform="translate(-318.435 -310.189)" fill="#2f2e41"/>
  <path id="Path_5480" data-name="Path 5480" d="M437.555,510.8a2.007,2.007,0,0,0-2.783-1.314l-4.949-5.137-.813,3.616,4.824,4.324a2.018,2.018,0,0,0,3.721-1.49Z" transform="translate(-382.417 -425.445)" fill="#ffb6b6"/>
  <path id="Path_5481" data-name="Path 5481" d="M391.782,446.663a.9.9,0,0,1-.717-.151l-7.381-5.612a9.256,9.256,0,0,1-3.588-5.439l-1.639-7.209a2.894,2.894,0,0,1,5.233-2.472l3.19,11.284,6.243,6.659a.9.9,0,0,1,.1,1.028l-.846,1.48a.9.9,0,0,1-.393.365A.887.887,0,0,1,391.782,446.663Z" transform="translate(-341.733 -361.234)" fill="#e4e4e4"/>
  <path id="Path_5482" data-name="Path 5482" d="M491.29,137.888H376.009a.167.167,0,0,1,0-.335H491.29a.167.167,0,1,1,0,.335Z" transform="translate(-339.861 -131.865)" fill="#cacaca"/>
  <circle id="Ellipse_344" data-name="Ellipse 344" cx="1.84" cy="1.84" r="1.84" transform="translate(38.073 0)" fill="#3f3d56"/>
  <circle id="Ellipse_345" data-name="Ellipse 345" cx="1.84" cy="1.84" r="1.84" transform="translate(44.431 0)" fill="#3f3d56"/>
  <circle id="Ellipse_346" data-name="Ellipse 346" cx="1.84" cy="1.84" r="1.84" transform="translate(50.789 0)" fill="#3f3d56"/>
  <path id="Path_5483" data-name="Path 5483" d="M915.693,112.01h-4.518a.335.335,0,0,1,0-.669h4.518a.335.335,0,1,1,0,.669Z" transform="translate(-768.074 -110.884)" fill="#3f3d56"/>
  <path id="Path_5484" data-name="Path 5484" d="M915.693,118.3h-4.518a.335.335,0,0,1,0-.669h4.518a.335.335,0,1,1,0,.669Z" transform="translate(-768.074 -115.916)" fill="#3f3d56"/>
  <path id="Path_5485" data-name="Path 5485" d="M915.693,124.583h-4.518a.335.335,0,0,1,0-.669h4.518a.335.335,0,1,1,0,.669Z" transform="translate(-768.074 -120.948)" fill="#3f3d56"/>
  <path id="Path_5486" data-name="Path 5486" d="M271.827,788.675H195.779a.2.2,0,1,1,0-.4h76.048a.2.2,0,0,1,0,.4Z" transform="translate(-195.58 -652.702)" fill="#cacaca"/>
  <path id="Path_5487" data-name="Path 5487" d="M585.848,262.71H538.487a1.077,1.077,0,0,1-1.09-.929,1.036,1.036,0,0,1,1.03-1.143h47.346a1.086,1.086,0,0,1,1.105.943,1.036,1.036,0,0,1-1.032,1.129Z" transform="translate(-469.166 -230.381)" fill="#698aed"/>
  <g id="Ellipse_347" data-name="Ellipse 347" transform="translate(74.362 58.645)" fill="none" stroke="#698aed" stroke-width="1">
    <circle cx="18.5" cy="18.5" r="18.5" stroke="none"/>
    <circle cx="18.5" cy="18.5" r="18" fill="none"/>
  </g>
  <rect id="Rectangle_2353" data-name="Rectangle 2353" width="2.221" height="36.211" rx="1.11" transform="translate(105.108 63.626) rotate(45)" fill="#698aed"/>
</svg>
