<svg xmlns="http://www.w3.org/2000/svg" width="214.104" height="170.311" viewBox="0 0 214.104 170.311">
  <g id="No_Data_Illustration-3" data-name="No Data Illustration-3" transform="translate(-15.001 -23.868)">
    <g id="Group_294" data-name="Group 294" transform="translate(167.678 93.078)" opacity="0.2">
      <g id="Group_293" data-name="Group 293" transform="translate(0 0)">
        <line id="Line_19" data-name="Line 19" x1="4.089" transform="translate(19.526 34.041)" fill="none" stroke="#000" stroke-linecap="round" stroke-linejoin="round" stroke-width="1"/>
        <line id="Line_20" data-name="Line 20" x1="4.09" transform="translate(11.756 34.041)" fill="none" stroke="#000" stroke-linecap="round" stroke-linejoin="round" stroke-width="1"/>
        <line id="Line_21" data-name="Line 21" x1="4.09" transform="translate(17.889)" fill="none" stroke="#000" stroke-linecap="round" stroke-linejoin="round" stroke-width="1"/>
        <g id="Group_292" data-name="Group 292" transform="translate(0 0)">
          <path id="Path_401" data-name="Path 401" d="M368.5,164.1h9.523a5.673,5.673,0,0,0,0-11.347H348.939" transform="translate(-322.767 -152.753)" fill="none" stroke="#000" stroke-linecap="round" stroke-linejoin="round" stroke-width="1"/>
          <path id="Path_402" data-name="Path 402" d="M333.128,206.544h9.523a5.674,5.674,0,1,0,0-11.348H313.568" transform="translate(-306.309 -172.503)" fill="none" stroke="#000" stroke-linecap="round" stroke-linejoin="round" stroke-width="1"/>
          <path id="Path_403" data-name="Path 403" d="M315.188,185.321h-9.523a5.673,5.673,0,1,1,0-11.346h40.329" transform="translate(-299.991 -162.628)" fill="none" stroke="#000" stroke-linecap="round" stroke-linejoin="round" stroke-width="1"/>
        </g>
      </g>
    </g>
    <g id="Group_299" data-name="Group 299" transform="translate(15.879 36.322)" opacity="0.2">
      <g id="Group_296" data-name="Group 296">
        <line id="Line_22" data-name="Line 22" x2="4.089" transform="translate(37.312 34.042)" fill="none" stroke="#000" stroke-linecap="round" stroke-linejoin="round" stroke-width="1"/>
        <line id="Line_23" data-name="Line 23" x2="4.089" transform="translate(45.082 34.042)" fill="none" stroke="#000" stroke-linecap="round" stroke-linejoin="round" stroke-width="1"/>
        <line id="Line_24" data-name="Line 24" x2="4.089" transform="translate(38.949)" fill="none" stroke="#000" stroke-linecap="round" stroke-linejoin="round" stroke-width="1"/>
        <g id="Group_295" data-name="Group 295">
          <path id="Path_404" data-name="Path 404" d="M31.283,57.952H21.758a5.674,5.674,0,0,1,0-11.348H50.842" transform="translate(-16.086 -46.604)" fill="none" stroke="#000" stroke-linecap="round" stroke-linejoin="round" stroke-width="1"/>
          <path id="Path_405" data-name="Path 405" d="M66.65,100.4H57.127a5.674,5.674,0,1,1,0-11.348H86.209" transform="translate(-32.542 -66.354)" fill="none" stroke="#000" stroke-linecap="round" stroke-linejoin="round" stroke-width="1"/>
          <path id="Path_406" data-name="Path 406" d="M74.8,79.173h9.522a5.673,5.673,0,1,0,0-11.346H44" transform="translate(-29.073 -56.479)" fill="none" stroke="#000" stroke-linecap="round" stroke-linejoin="round" stroke-width="1"/>
        </g>
      </g>
      <g id="Group_298" data-name="Group 298" transform="translate(36.825 34.042)">
        <line id="Line_25" data-name="Line 25" x1="4.089" transform="translate(19.525 34.041)" fill="none" stroke="#000" stroke-linecap="round" stroke-linejoin="round" stroke-width="1"/>
        <line id="Line_26" data-name="Line 26" x1="4.089" transform="translate(11.756 34.041)" fill="none" stroke="#000" stroke-linecap="round" stroke-linejoin="round" stroke-width="1"/>
        <line id="Line_27" data-name="Line 27" x1="4.089" transform="translate(17.889)" fill="none" stroke="#000" stroke-linecap="round" stroke-linejoin="round" stroke-width="1"/>
        <g id="Group_297" data-name="Group 297">
          <path id="Path_407" data-name="Path 407" d="M153.466,121.619h9.524a5.674,5.674,0,0,0,0-11.347H133.9" transform="translate(-107.734 -110.272)" fill="none" stroke="#000" stroke-linecap="round" stroke-linejoin="round" stroke-width="1"/>
          <path id="Path_408" data-name="Path 408" d="M118.1,164.062h9.524a5.674,5.674,0,0,0,0-11.348H98.537" transform="translate(-91.277 -130.021)" fill="none" stroke="#000" stroke-linecap="round" stroke-linejoin="round" stroke-width="1"/>
          <path id="Path_409" data-name="Path 409" d="M100.156,142.84H90.633a5.673,5.673,0,1,1,0-11.346h40.329" transform="translate(-84.959 -120.147)" fill="none" stroke="#000" stroke-linecap="round" stroke-linejoin="round" stroke-width="1"/>
        </g>
      </g>
    </g>
    <g id="Group_316" data-name="Group 316" transform="translate(15.642 24.508)" opacity="0.1">
      <g id="Group_305" data-name="Group 305" transform="translate(41.146 32.211)">
        <line id="Line_28" data-name="Line 28" y2="4.849" transform="translate(2.403)" fill="none" stroke="#111" stroke-linecap="round" stroke-linejoin="round" stroke-width="1.282"/>
        <line id="Line_29" data-name="Line 29" x1="4.807" transform="translate(0 2.424)" fill="none" stroke="#111" stroke-linecap="round" stroke-linejoin="round" stroke-width="1.282"/>
      </g>
      <g id="Group_306" data-name="Group 306" transform="translate(150.337)">
        <line id="Line_30" data-name="Line 30" y2="4.849" transform="translate(2.403)" fill="none" stroke="#111" stroke-linecap="round" stroke-linejoin="round" stroke-width="1.282"/>
        <line id="Line_31" data-name="Line 31" x1="4.807" transform="translate(0 2.424)" fill="none" stroke="#111" stroke-linecap="round" stroke-linejoin="round" stroke-width="1.282"/>
      </g>
      <g id="Group_307" data-name="Group 307" transform="translate(206.593 46.715)">
        <line id="Line_32" data-name="Line 32" y2="4.849" transform="translate(2.404)" fill="none" stroke="#111" stroke-linecap="round" stroke-linejoin="round" stroke-width="1.282"/>
        <line id="Line_33" data-name="Line 33" x1="4.806" transform="translate(0 2.424)" fill="none" stroke="#111" stroke-linecap="round" stroke-linejoin="round" stroke-width="1.282"/>
      </g>
      <g id="Group_308" data-name="Group 308" transform="translate(201.788 93.397)">
        <line id="Line_34" data-name="Line 34" y2="4.849" transform="translate(2.403)" fill="none" stroke="#111" stroke-linecap="round" stroke-linejoin="round" stroke-width="1.282"/>
        <line id="Line_35" data-name="Line 35" x1="4.805" transform="translate(0 2.424)" fill="none" stroke="#111" stroke-linecap="round" stroke-linejoin="round" stroke-width="1.282"/>
      </g>
      <g id="Group_309" data-name="Group 309" transform="translate(11.49 83.166)">
        <line id="Line_36" data-name="Line 36" y2="4.849" transform="translate(2.403)" fill="none" stroke="#111" stroke-linecap="round" stroke-linejoin="round" stroke-width="1.282"/>
        <line id="Line_37" data-name="Line 37" x1="4.806" transform="translate(0 2.424)" fill="none" stroke="#111" stroke-linecap="round" stroke-linejoin="round" stroke-width="1.282"/>
      </g>
      <g id="Group_310" data-name="Group 310" transform="translate(4.07 52.636)">
        <line id="Line_38" data-name="Line 38" x2="6.071" fill="none" stroke="#111" stroke-linecap="round" stroke-linejoin="round" stroke-width="1.282"/>
        <line id="Line_39" data-name="Line 39" x2="1.687" transform="translate(8.138)" fill="none" stroke="#111" stroke-linecap="round" stroke-linejoin="round" stroke-width="1.282"/>
        <line id="Line_40" data-name="Line 40" x2="1.687" transform="translate(11.343)" fill="none" stroke="#111" stroke-linecap="round" stroke-linejoin="round" stroke-width="1.282"/>
        <line id="Line_41" data-name="Line 41" x2="6.072" transform="translate(1.181 2.108)" fill="none" stroke="#111" stroke-linecap="round" stroke-linejoin="round" stroke-width="1.282"/>
        <line id="Line_42" data-name="Line 42" x2="1.687" transform="translate(9.318 2.108)" fill="none" stroke="#111" stroke-linecap="round" stroke-linejoin="round" stroke-width="1.282"/>
        <line id="Line_43" data-name="Line 43" x2="1.686" transform="translate(12.523 2.108)" fill="none" stroke="#111" stroke-linecap="round" stroke-linejoin="round" stroke-width="1.282"/>
      </g>
      <g id="Group_311" data-name="Group 311" transform="translate(47.933 6.219)">
        <line id="Line_44" data-name="Line 44" x2="6.072" fill="none" stroke="#111" stroke-linecap="round" stroke-linejoin="round" stroke-width="1.282"/>
        <line id="Line_45" data-name="Line 45" x2="1.687" transform="translate(8.138)" fill="none" stroke="#111" stroke-linecap="round" stroke-linejoin="round" stroke-width="1.282"/>
        <line id="Line_46" data-name="Line 46" x2="1.687" transform="translate(11.343)" fill="none" stroke="#111" stroke-linecap="round" stroke-linejoin="round" stroke-width="1.282"/>
        <line id="Line_47" data-name="Line 47" x2="6.071" transform="translate(1.181 2.108)" fill="none" stroke="#111" stroke-linecap="round" stroke-linejoin="round" stroke-width="1.282"/>
        <line id="Line_48" data-name="Line 48" x2="1.686" transform="translate(9.319 2.108)" fill="none" stroke="#111" stroke-linecap="round" stroke-linejoin="round" stroke-width="1.282"/>
        <line id="Line_49" data-name="Line 49" x2="1.687" transform="translate(12.523 2.108)" fill="none" stroke="#111" stroke-linecap="round" stroke-linejoin="round" stroke-width="1.282"/>
      </g>
      <g id="Group_312" data-name="Group 312" transform="translate(181.318 22.342)">
        <line id="Line_50" data-name="Line 50" x2="6.074" fill="none" stroke="#111" stroke-linecap="round" stroke-linejoin="round" stroke-width="1.282"/>
        <line id="Line_51" data-name="Line 51" x2="1.687" transform="translate(8.14)" fill="none" stroke="#111" stroke-linecap="round" stroke-linejoin="round" stroke-width="1.282"/>
        <line id="Line_52" data-name="Line 52" x2="1.688" transform="translate(11.344)" fill="none" stroke="#111" stroke-linecap="round" stroke-linejoin="round" stroke-width="1.282"/>
        <line id="Line_53" data-name="Line 53" x2="6.072" transform="translate(1.182 2.107)" fill="none" stroke="#111" stroke-linecap="round" stroke-linejoin="round" stroke-width="1.282"/>
        <line id="Line_54" data-name="Line 54" x2="1.686" transform="translate(9.32 2.107)" fill="none" stroke="#111" stroke-linecap="round" stroke-linejoin="round" stroke-width="1.282"/>
        <line id="Line_55" data-name="Line 55" x2="1.687" transform="translate(12.524 2.107)" fill="none" stroke="#111" stroke-linecap="round" stroke-linejoin="round" stroke-width="1.282"/>
      </g>
      <g id="Group_313" data-name="Group 313" transform="translate(99.992 21.288)">
        <line id="Line_56" data-name="Line 56" x2="6.074" fill="none" stroke="#111" stroke-linecap="round" stroke-linejoin="round" stroke-width="1.282"/>
        <line id="Line_57" data-name="Line 57" x2="1.687" transform="translate(8.14)" fill="none" stroke="#111" stroke-linecap="round" stroke-linejoin="round" stroke-width="1.282"/>
        <line id="Line_58" data-name="Line 58" x2="1.688" transform="translate(11.344)" fill="none" stroke="#111" stroke-linecap="round" stroke-linejoin="round" stroke-width="1.282"/>
        <line id="Line_59" data-name="Line 59" x2="6.072" transform="translate(1.182 2.107)" fill="none" stroke="#111" stroke-linecap="round" stroke-linejoin="round" stroke-width="1.282"/>
        <line id="Line_60" data-name="Line 60" x2="1.686" transform="translate(9.32 2.107)" fill="none" stroke="#111" stroke-linecap="round" stroke-linejoin="round" stroke-width="1.282"/>
        <line id="Line_61" data-name="Line 61" x2="1.687" transform="translate(12.524 2.107)" fill="none" stroke="#111" stroke-linecap="round" stroke-linejoin="round" stroke-width="1.282"/>
      </g>
      <g id="Group_314" data-name="Group 314" transform="translate(197.087 126.026)">
        <line id="Line_62" data-name="Line 62" x2="6.072" fill="none" stroke="#111" stroke-linecap="round" stroke-linejoin="round" stroke-width="1.282"/>
        <line id="Line_63" data-name="Line 63" x2="1.688" transform="translate(8.137)" fill="none" stroke="#111" stroke-linecap="round" stroke-linejoin="round" stroke-width="1.282"/>
        <line id="Line_64" data-name="Line 64" x2="1.688" transform="translate(11.342)" fill="none" stroke="#111" stroke-linecap="round" stroke-linejoin="round" stroke-width="1.282"/>
        <line id="Line_65" data-name="Line 65" x2="6.072" transform="translate(1.18 2.108)" fill="none" stroke="#111" stroke-linecap="round" stroke-linejoin="round" stroke-width="1.282"/>
        <line id="Line_66" data-name="Line 66" x2="1.688" transform="translate(9.317 2.108)" fill="none" stroke="#111" stroke-linecap="round" stroke-linejoin="round" stroke-width="1.282"/>
        <line id="Line_67" data-name="Line 67" x2="1.687" transform="translate(12.522 2.108)" fill="none" stroke="#111" stroke-linecap="round" stroke-linejoin="round" stroke-width="1.282"/>
      </g>
      <g id="Group_315" data-name="Group 315" transform="translate(0 122.488)">
        <line id="Line_68" data-name="Line 68" x2="6.072" fill="none" stroke="#111" stroke-linecap="round" stroke-linejoin="round" stroke-width="1.282"/>
        <line id="Line_69" data-name="Line 69" x2="1.687" transform="translate(8.139)" fill="none" stroke="#111" stroke-linecap="round" stroke-linejoin="round" stroke-width="1.282"/>
        <line id="Line_70" data-name="Line 70" x2="1.687" transform="translate(11.343)" fill="none" stroke="#111" stroke-linecap="round" stroke-linejoin="round" stroke-width="1.282"/>
        <line id="Line_71" data-name="Line 71" x2="6.071" transform="translate(1.181 2.109)" fill="none" stroke="#111" stroke-linecap="round" stroke-linejoin="round" stroke-width="1.282"/>
        <line id="Line_72" data-name="Line 72" x2="1.686" transform="translate(9.319 2.109)" fill="none" stroke="#111" stroke-linecap="round" stroke-linejoin="round" stroke-width="1.282"/>
        <line id="Line_73" data-name="Line 73" x2="1.688" transform="translate(12.523 2.109)" fill="none" stroke="#111" stroke-linecap="round" stroke-linejoin="round" stroke-width="1.282"/>
      </g>
    </g>
    <ellipse id="Ellipse_54" data-name="Ellipse 54" cx="79.359" cy="5.152" rx="79.359" ry="5.152" transform="translate(35.636 179.33)" opacity="0.1"/>
    <path id="Path_410" data-name="Path 410" d="M349.139,334.145c0,1.55-8,2.807-17.861,2.807s-17.86-1.257-17.86-2.807,8-2.807,17.86-2.807S349.139,332.6,349.139,334.145Z" transform="translate(-138.561 -142.774)" opacity="0.1"/>
    <g id="Group_304" data-name="Group 304" transform="translate(42.674 72.257)">
      <g id="Group_301" data-name="Group 301" transform="translate(0 19.468)">
        <g id="Group_300" data-name="Group 300">
          <rect id="Rectangle_493" data-name="Rectangle 493" width="140.555" height="92.287" rx="6"/>
          <path id="Path_411" data-name="Path 411" d="M206.552,238.949a3.379,3.379,0,0,1-3.4,3.359H72.487a3.38,3.38,0,0,1-3.4-3.359V156.469a3.381,3.381,0,0,1,3.4-3.359H203.154a3.379,3.379,0,0,1,3.4,3.359Z" transform="translate(-67.543 -151.566)" fill="#9a9a9a"/>
          <rect id="Rectangle_494" data-name="Rectangle 494" width="121.632" height="72.978" transform="translate(8.882 8.881)" fill="#fff"/>
          <path id="Path_412" data-name="Path 412" d="M111.663,238.8A200.46,200.46,0,0,0,129.21,223.92a226.907,226.907,0,0,0,30.606-36.275,250.452,250.452,0,0,0,19.746-34.535H72.487a3.381,3.381,0,0,0-3.4,3.359v82.479a3.38,3.38,0,0,0,3.4,3.359h34.3C108.445,241.183,110.071,240.006,111.663,238.8Z" transform="translate(-67.543 -151.566)" fill="rgba(0,0,0,0.12)" style="mix-blend-mode: multiply;isolation: isolate"/>
          <path id="Path_413" data-name="Path 413" d="M200.319,158.6a1.882,1.882,0,1,1-1.882-1.882A1.882,1.882,0,0,1,200.319,158.6Z" transform="translate(-126.856 -153.246)" fill="#9c9b9b"/>
          <path id="Path_414" data-name="Path 414" d="M222.433,309.306a1.738,1.738,0,0,1-1.738,1.737H214.9a1.737,1.737,0,0,1-1.737-1.737h0a1.737,1.737,0,0,1,1.737-1.738h5.792a1.738,1.738,0,0,1,1.738,1.738Z" transform="translate(-134.586 -223.438)" fill="#fff"/>
          <path id="Path_415" data-name="Path 415" d="M198.239,309.306a1.738,1.738,0,0,1-1.739,1.737h-5.791a1.739,1.739,0,0,1-1.739-1.737h0a1.739,1.739,0,0,1,1.739-1.738H196.5a1.739,1.739,0,0,1,1.739,1.738Z" transform="translate(-123.327 -223.438)" fill="#fff"/>
          <path id="Path_416" data-name="Path 416" d="M174.045,309.306a1.738,1.738,0,0,1-1.739,1.737h-5.792a1.738,1.738,0,0,1-1.737-1.737h0a1.738,1.738,0,0,1,1.737-1.738h5.792a1.739,1.739,0,0,1,1.739,1.738Z" transform="translate(-112.07 -223.438)" fill="#fff"/>
        </g>
      </g>
      <g id="Group_302" data-name="Group 302" transform="translate(23.745 0)">
        <rect id="Rectangle_495" data-name="Rectangle 495" width="140.561" height="90.867" rx="4" fill="#fff" stroke="rgba(0,0,0,0.38)" stroke-miterlimit="10" stroke-width="1"/>
        <rect id="Rectangle_497" data-name="Rectangle 497" width="47.327" height="36.442" rx="2" transform="translate(84.71 17.984)" fill="rgba(0,0,0,0.12)"/>
        <rect id="Rectangle_498" data-name="Rectangle 498" width="38.808" height="10.412" transform="translate(10.061 17.984)" opacity="0.1"/>
        <rect id="Rectangle_499" data-name="Rectangle 499" width="38.808" height="20.676" rx="2" transform="translate(94.151 61.259)" opacity="0.1"/>
        <rect id="Rectangle_500" data-name="Rectangle 500" width="62.818" height="2.603" transform="translate(10.061 33.602)" opacity="0.1"/>
        <rect id="Rectangle_501" data-name="Rectangle 501" width="62.818" height="2.603" transform="translate(10.061 42.002)" opacity="0.1"/>
        <rect id="Rectangle_502" data-name="Rectangle 502" width="42.122" height="2.603" transform="translate(10.061 50.403)" opacity="0.1"/>
        <rect id="Rectangle_503" data-name="Rectangle 503" width="71.937" height="2.603" transform="translate(8.992 62.53)" opacity="0.1"/>
        <rect id="Rectangle_504" data-name="Rectangle 504" width="71.937" height="2.603" transform="translate(8.992 70.931)" opacity="0.1"/>
        <rect id="Rectangle_505" data-name="Rectangle 505" width="48.235" height="2.603" transform="translate(8.992 79.331)" opacity="0.1"/>
      </g>
      <g id="Group_303" data-name="Group 303" transform="translate(94.914 38.766)">
        <rect id="Rectangle_506" data-name="Rectangle 506" width="6.385" height="7.336" transform="translate(39.167 47.606) rotate(-38.506)" fill="#292929"/>
        <path id="Subtraction_9" data-name="Subtraction 9" d="M26.286,52.535a26.517,26.517,0,0,1-11.239-2.512,26.125,26.125,0,0,1-5.017-3.1,26.4,26.4,0,0,1-4.315-4.3A26.256,26.256,0,0,1,26.251,0,26.527,26.527,0,0,1,37.491,2.512a26.138,26.138,0,0,1,5.017,3.1,26.4,26.4,0,0,1,4.315,4.3A26.257,26.257,0,0,1,26.286,52.535Zm-.029-47.92A21.644,21.644,0,0,0,9.326,39.748a21.438,21.438,0,0,0,7.693,6.1,21.858,21.858,0,0,0,9.265,2.071A21.657,21.657,0,0,0,35.52,6.686a21.854,21.854,0,0,0-9.264-2.071Z" fill="#484848" stroke="rgba(0,0,0,0)" stroke-miterlimit="10" stroke-width="1"/>
        <path id="Path_422" data-name="Path 422" d="M290.945,203.118a21.652,21.652,0,1,1-30.424-3.463A21.653,21.653,0,0,1,290.945,203.118Z" transform="translate(-247.732 -190.331)" fill="#c6c6c6" opacity="0.699"/>
        <path id="Path_423" data-name="Path 423" d="M287.868,243.986a21.651,21.651,0,0,1-35.119-16.194,21.649,21.649,0,1,0,42.9,3.341A21.56,21.56,0,0,1,287.868,243.986Z" transform="translate(-247.737 -205.615)" opacity="0.05"/>
        <path id="Path_424" data-name="Path 424" d="M350.83,300.6a4.259,4.259,0,0,1-.682,5.985l-2.222,1.768a4.258,4.258,0,0,1-5.985-.681l-18.122-22.776a4.26,4.26,0,0,1,.681-5.985l2.223-1.769a4.26,4.26,0,0,1,5.985.682Z" transform="translate(-280.558 -228.146)" fill="#484848"/>
        <path id="Path_425" data-name="Path 425" d="M355.763,325.427l1.474,1.852a4.258,4.258,0,0,0,5.985.681l2.222-1.768a4.259,4.259,0,0,0,.682-5.985l-1.474-1.851Z" transform="translate(-295.853 -247.756)" fill="#121212"/>
        <path id="Path_426" data-name="Path 426" d="M356.3,302.288a1.243,1.243,0,0,1-.2,1.747h0a1.243,1.243,0,0,1-1.747-.2l-16.573-20.831a1.243,1.243,0,0,1,.2-1.747h0a1.243,1.243,0,0,1,1.747.2Z" transform="translate(-287.361 -230.368)" fill="#fff" opacity="0.3" style="mix-blend-mode: soft-light;isolation: isolate"/>
        <path id="Path_427" data-name="Path 427" d="M290.777,202.043a9.939,9.939,0,1,1-13.965-1.589A9.939,9.939,0,0,1,290.777,202.043Z" transform="translate(-257.37 -191.888)" fill="#fff" opacity="0.3"/>
      </g>
    </g>
  </g>
</svg>
