<svg id="photo_camera_black_24dp" xmlns="http://www.w3.org/2000/svg" width="24" height="24" viewBox="0 0 24 24">
  <path id="Path_5524" data-name="Path 5524" d="M0,0H24V24H0Z" fill="none"/>
  <path id="Path_5525" data-name="Path 5525" d="M20,6H15.95L14.12,4H9.88L8.05,6H4V18H20ZM12,17a5,5,0,1,1,5-5A5,5,0,0,1,12,17Z" fill="rgba(0,0,0,0.38)" opacity="0.3"/>
  <path id="Path_5526" data-name="Path 5526" d="M4,20H20a2.006,2.006,0,0,0,2-2V6a2.006,2.006,0,0,0-2-2H16.83L15,2H9L7.17,4H4A2.006,2.006,0,0,0,2,6V18A2.006,2.006,0,0,0,4,20ZM4,6H8.05L9.88,4h4.24l1.83,2H20V18H4Zm8,1a5,5,0,1,0,5,5A5,5,0,0,0,12,7Zm0,8a3,3,0,1,1,3-3A3.009,3.009,0,0,1,12,15Z" fill="rgba(0,0,0,0.38)"/>
</svg>
