<svg id="MDI_account-tie" data-name="MDI / account-tie" xmlns="http://www.w3.org/2000/svg" width="20" height="20" viewBox="0 0 20 20">
  <g id="Boundary" stroke="rgba(0,0,0,0)" stroke-width="1" opacity="0">
    <rect width="20" height="20" stroke="none"/>
    <rect x="0.5" y="0.5" width="19" height="19" fill="none"/>
  </g>
  <g id="Path_account-tie" data-name="Path / account-tie" transform="translate(-0.667 -0.5)" fill="none">
    <path d="M10.667,3A3.333,3.333,0,1,1,7.333,6.333,3.332,3.332,0,0,1,10.667,3M14,11.783a9.493,9.493,0,0,1-1.825,5.242L11.5,13l.783-1.567a14.392,14.392,0,0,0-1.617-.1,14.392,14.392,0,0,0-1.617.1L9.833,13l-.675,4.025a9.493,9.493,0,0,1-1.825-5.242C5.342,12.367,4,13.417,4,14.667V18H17.333V14.667C17.333,13.417,16,12.367,14,11.783Z" stroke="none"/>
    <path d="M 10.66666507720947 4.5 C 9.655765533447266 4.5 8.833334922790527 5.322429656982422 8.833334922790527 6.333330154418945 C 8.833334922790527 7.344240188598633 9.655765533447266 8.166669845581055 10.66666507720947 8.166669845581055 C 11.67756462097168 8.166669845581055 12.49999523162842 7.344240188598633 12.49999523162842 6.333330154418945 C 12.49999523162842 5.322429656982422 11.67756462097168 4.5 10.66666507720947 4.5 M 15.21561813354492 13.94730949401855 C 15.03050422668457 14.69510078430176 14.72915172576904 15.5650691986084 14.24192905426025 16.5 L 15.83332443237305 16.5 L 15.83332443237305 14.66666984558105 C 15.83332443237305 14.49882888793945 15.63263320922852 14.22984886169434 15.21561813354492 13.94730949401855 M 6.117988586425781 13.94842147827148 C 5.700770378112793 14.23095703125 5.499995231628418 14.49943542480469 5.499995231628418 14.66666984558105 L 5.499995231628418 16.5 L 7.09140682220459 16.5 C 6.604429244995117 15.56554412841797 6.303127288818359 14.69595718383789 6.117988586425781 13.94842147827148 M 10.66666507720947 3 C 12.50833511352539 3 13.99999523162842 4.491670608520508 13.99999523162842 6.333330154418945 C 13.99999523162842 8.175000190734863 12.50833511352539 9.666669845581055 10.66666507720947 9.666669845581055 C 8.824995040893555 9.666669845581055 7.333334922790527 8.175000190734863 7.333334922790527 6.333330154418945 C 7.333334922790527 4.491670608520508 8.824995040893555 3 10.66666507720947 3 Z M 10.66666507720947 11.33333015441895 C 11.22500514984131 11.33333015441895 11.7666654586792 11.375 12.28333473205566 11.43332958221436 L 11.49999523162842 13 L 12.17500495910645 17.02499961853027 C 13.76666450500488 14.72500038146973 13.99999523162842 12.66666984558105 13.99999523162842 11.78332996368408 C 15.99999523162842 12.36666965484619 17.33332443237305 13.41666984558105 17.33332443237305 14.66666984558105 L 17.33332443237305 18 L 3.999994277954102 18 L 3.999994277954102 14.66666984558105 C 3.999994277954102 13.41666984558105 5.341665267944336 12.36666965484619 7.333334922790527 11.78332996368408 C 7.333334922790527 12.66666984558105 7.566664695739746 14.72500038146973 9.158334732055664 17.02499961853027 L 9.833334922790527 13 L 9.050004959106445 11.43332958221436 C 9.566664695739746 11.375 10.10833549499512 11.33333015441895 10.66666507720947 11.33333015441895 Z" stroke="none" fill="#000"/>
  </g>
  <path id="Path_account-tie-2" data-name="Path / account-tie" d="M10.667,3A3.333,3.333,0,1,1,7.333,6.333,3.332,3.332,0,0,1,10.667,3M14,11.783a9.493,9.493,0,0,1-1.825,5.242L11.5,13l.783-1.567a14.392,14.392,0,0,0-1.617-.1,14.392,14.392,0,0,0-1.617.1L9.833,13l-.675,4.025a9.493,9.493,0,0,1-1.825-5.242C5.342,12.367,4,13.417,4,14.667V18H17.333V14.667C17.333,13.417,16,12.367,14,11.783Z" transform="translate(-0.667 -0.5)" opacity="0.3"/>
</svg>
