<svg id="filter_none_black_24dp" xmlns="http://www.w3.org/2000/svg" width="16" height="16" viewBox="0 0 16 16">
  <path id="Path_5366" data-name="Path 5366" d="M0,0H16V16H0Z" fill="none"/>
  <path id="Path_5367" data-name="Path 5367" d="M2.333,3.667H1V14.333a1.337,1.337,0,0,0,1.333,1.333H13V14.333H2.333ZM14.333,1H5A1.337,1.337,0,0,0,3.667,2.333v9.333A1.337,1.337,0,0,0,5,13h9.333a1.337,1.337,0,0,0,1.333-1.333V2.333A1.337,1.337,0,0,0,14.333,1Zm0,10.667H5V2.333h9.333Z" transform="translate(-0.333 -0.333)"/>
</svg>
