<svg id="pin_black_24dp" xmlns="http://www.w3.org/2000/svg" width="16" height="16" viewBox="0 0 16 16">
  <g id="Group_6135" data-name="Group 6135">
    <path id="Path_5361" data-name="Path 5361" d="M0,0H16V16H0Z" fill="none"/>
  </g>
  <g id="Group_6137" data-name="Group 6137" transform="translate(1.333 2.667)">
    <g id="Group_6136" data-name="Group 6136">
      <path id="Path_5362" data-name="Path 5362" d="M14,4H3.333A1.337,1.337,0,0,0,2,5.333v8a1.337,1.337,0,0,0,1.333,1.333H14a1.337,1.337,0,0,0,1.333-1.333v-8A1.337,1.337,0,0,0,14,4Zm0,9.333H3.333v-8H14Z" transform="translate(-2 -4)"/>
      <path id="Path_5363" data-name="Path 5363" d="M6,10v3h.767V9h-.58L5.01,9.847l.387.593Z" transform="translate(-3.003 -5.667)"/>
      <path id="Path_5364" data-name="Path 5364" d="M10.833,9.7a.491.491,0,0,1,.54.48.967.967,0,0,1-.36.707c-.24.253-.707.72-1.42,1.433V13h2.593v-.66h-1.58l-.02-.033c.453-.453.767-.76.933-.927a1.754,1.754,0,0,0,.613-1.24,1.081,1.081,0,0,0-.607-.987,1.562,1.562,0,0,0-1.3-.02A1.241,1.241,0,0,0,9.56,9.9l.673.28A.63.63,0,0,1,10.833,9.7Z" transform="translate(-4.52 -5.667)"/>
      <path id="Path_5365" data-name="Path 5365" d="M16.307,12.293a.692.692,0,0,1-.68-.573l-.687.273A1.361,1.361,0,0,0,16.307,13a1.315,1.315,0,0,0,1.173-.567,1.084,1.084,0,0,0-.007-1.173.979.979,0,0,0-.453-.347v-.047a.925.925,0,0,0,.347-.32A1,1,0,0,0,17.353,9.5a1.367,1.367,0,0,0-2.313.327l.66.273a.572.572,0,0,1,.567-.427.448.448,0,0,1,.5.433c0,.387-.367.48-.587.48h-.307v.667h.333c.373,0,.693.16.693.527A.562.562,0,0,1,16.307,12.293Z" transform="translate(-6.313 -5.667)"/>
    </g>
  </g>
</svg>
