<svg id="Component_146_61" data-name="Component 146 – 61" xmlns="http://www.w3.org/2000/svg" width="24" height="24" viewBox="0 0 24 24">
  <g id="note_add_black_24dp_1_" data-name="note_add_black_24dp (1)" opacity="0.38">
    <path id="Path_5682" data-name="Path 5682" d="M0,0H24V24H0Z" fill="none"/>
    <path id="Path_5683" data-name="Path 5683" d="M13,4H6V20H18V9H13Zm3,10v2H13v3H11V16H8V14h3V11h2v3Z" opacity="0.3"/>
    <path id="Path_5684" data-name="Path 5684" d="M13,11H11v3H8v2h3v3h2V16h3V14H13Zm1-9H6A2.006,2.006,0,0,0,4,4V20a2,2,0,0,0,1.99,2H18a2.006,2.006,0,0,0,2-2V8Zm4,18H6V4h7V9h5Z"/>
  </g>
</svg>
