<svg id="Component_146_33" data-name="Component 146 – 33" xmlns="http://www.w3.org/2000/svg" width="24" height="24" viewBox="0 0 24 24">
  <rect id="Rectangle_2274" data-name="Rectangle 2274" width="24" height="24" fill="none"/>
  <g id="person_add_alt_black_24dp" transform="translate(2 2)" opacity="0.38">
    <g id="Group_6483" data-name="Group 6483">
      <rect id="Rectangle_2491" data-name="Rectangle 2491" width="20" height="20" fill="none"/>
    </g>
    <g id="Group_6485" data-name="Group 6485" transform="translate(0.833 3.333)">
      <g id="Group_6484" data-name="Group 6484">
        <circle id="Ellipse_359" data-name="Ellipse 359" cx="1.667" cy="1.667" r="1.667" transform="translate(5 1.667)" opacity="0.3"/>
        <path id="Path_5532" data-name="Path 5532" d="M12.567,16.117A10.09,10.09,0,0,0,8,15a10.09,10.09,0,0,0-4.567,1.117A.809.809,0,0,0,3,16.85v.65H13v-.65A.809.809,0,0,0,12.567,16.117Z" transform="translate(-1.333 -5.833)" opacity="0.3"/>
        <path id="Path_5533" data-name="Path 5533" d="M8.333,10.667A3.333,3.333,0,1,0,5,7.333,3.332,3.332,0,0,0,8.333,10.667Zm0-5A1.667,1.667,0,1,1,6.667,7.333,1.672,1.672,0,0,1,8.333,5.667Z" transform="translate(-1.667 -4)"/>
        <path id="Path_5534" data-name="Path 5534" d="M19.167,8.5V6H17.5V8.5H15v1.667h2.5v2.5h1.667v-2.5h2.5V8.5Z" transform="translate(-3.333 -4.333)"/>
        <path id="Path_5535" data-name="Path 5535" d="M12.992,14.3a11.556,11.556,0,0,0-10.65,0A2.476,2.476,0,0,0,1,16.517v2.317H14.333V16.517A2.476,2.476,0,0,0,12.992,14.3Zm-.325,2.867h-10v-.65a.809.809,0,0,1,.433-.733,10.09,10.09,0,0,1,4.567-1.117,10.09,10.09,0,0,1,4.567,1.117.809.809,0,0,1,.433.733Z" transform="translate(-1 -5.5)"/>
      </g>
    </g>
  </g>
</svg>
