<svg id="photo_camera_black_24dp" xmlns="http://www.w3.org/2000/svg" width="20" height="20" viewBox="0 0 20 20">
  <path id="Path_5703" data-name="Path 5703" d="M0,0H20V20H0Z" fill="none"/>
  <path id="Path_5704" data-name="Path 5704" d="M12.1,3.667l1.525,1.667H17v10H3.667v-10H7.042L8.567,3.667H12.1M12.833,2h-5L6.308,3.667H3.667A1.672,1.672,0,0,0,2,5.333v10A1.672,1.672,0,0,0,3.667,17H17a1.672,1.672,0,0,0,1.667-1.667v-10A1.672,1.672,0,0,0,17,3.667H14.358Zm-2.5,5.833a2.5,2.5,0,1,1-2.5,2.5,2.507,2.507,0,0,1,2.5-2.5m0-1.667A4.167,4.167,0,1,0,14.5,10.333,4.168,4.168,0,0,0,10.333,6.167Z" transform="translate(-0.333 -0.333)" fill="rgba(0,0,0,0.87)"/>
</svg>
