<svg id="Trailing_icon" data-name="Trailing icon" xmlns="http://www.w3.org/2000/svg" width="24" height="24" viewBox="0 0 24 24">
  <rect id="Boundary" width="24" height="24" fill="none"/>
  <path id="Icon_awesome-calendar-day" data-name="Icon awesome-calendar-day" d="M0,18.125A1.875,1.875,0,0,0,1.875,20h13.75A1.875,1.875,0,0,0,17.5,18.125V7.5H0Zm2.5-7.5A.627.627,0,0,1,3.125,10h3.75a.627.627,0,0,1,.625.625v3.75A.627.627,0,0,1,6.875,15H3.125a.627.627,0,0,1-.625-.625ZM15.625,2.5H13.75V.625A.627.627,0,0,0,13.125,0h-1.25a.627.627,0,0,0-.625.625V2.5h-5V.625A.627.627,0,0,0,5.625,0H4.375A.627.627,0,0,0,3.75.625V2.5H1.875A1.875,1.875,0,0,0,0,4.375V6.25H17.5V4.375A1.875,1.875,0,0,0,15.625,2.5Z" transform="translate(3.25 2)" fill="rgba(0,0,0,0.6)"/>
</svg>
